<?xml version="1.0" encoding="utf-8"?>
<!-- Generator: Adobe Illustrator 18.0.0, SVG Export Plug-In . SVG Version: 6.00 Build 0)  -->
<!DOCTYPE svg PUBLIC "-//W3C//DTD SVG 1.1//EN" "http://www.w3.org/Graphics/SVG/1.1/DTD/svg11.dtd">
<svg version="1.1" id="圖層_1" xmlns="http://www.w3.org/2000/svg" xmlns:xlink="http://www.w3.org/1999/xlink" x="0px" y="0px"
	 viewBox="0 223.9 595.3 266.6" enable-background="new 0 223.9 595.3 266.6" xml:space="preserve">
<g id="底層">
</g>
<g id="圖層_2">
	<path fill="#E4C76B" d="M595.1,354.3c-50.5,18.1-154.9,45.6-207.8,55.4C245.1,436.1-0.5,454.1-0.5,454.1l-1.3,37.6l597.1-2.2"/>
</g>
<g id="圖層_4" display="none">
</g>
<g>
	<g id="XMLID_1_">
		<g>
			<path fill="#DCDCDD" d="M259,427.9l0.9,0.4c-0.2,0.6-0.2,1.4-0.5,2c-0.3,0.5-0.9,0.9-1.6,0.9s-1.3-0.1-1.9-0.3
				c-0.3-0.1-0.6,0.3-0.9,0.3c-0.3,0.1-0.7,0.1-0.9-0.2c-0.2-0.4,0.2-0.8,0.6-0.9c0.4-0.1,0.9-0.1,1.2-0.4c0.2-0.2,0.3-0.6,0.4-0.9
				c0.2-0.7,0.7-1.2,1.1-1.8l1.5,0C259,427.3,259,427.6,259,427.9z"/>
			<path fill="#DCDCDD" d="M228.4,379.5c-0.1,1.8-0.3,3.7-0.4,5.5l0.4,0c1.1-2,1.9-4.2,2.3-6.5c0-0.2,0.1-0.4,0-0.7
				c0-0.2-0.1-0.4-0.2-0.6c-0.6-1.5-1.2-3-1.8-4.6c-0.2-0.4-0.4-0.9-0.7-1.2c-0.7-0.6-2-0.8-2.2-1.7l-0.2,0.1
				c0.7,2.4,1.4,4.8,2.3,7.2C228.4,377.8,228.7,378.7,228.4,379.5z M224.9,403c0.3-1.2,0.3-2.3,0.4-3.5l0-0.1c0-0.1,0-0.1,0-0.2
				c-0.3-3.1-0.6-6.1-0.9-9.2c-0.2-1.9-0.4-3.8-0.5-5.7c-0.4-4.6-0.7-8.5-2.9-12.6c-1-1.9-1.5-4.1-2-6.2c-0.6-2.6-1.2-5.7,0.5-7.7
				c0.8-0.9,1.8-1.5,2.8-2.2c0.9-0.7,1.7-1.7,1.7-2.7c0,0,0,0,0,0c-0.7-0.6-1-1.6-1.2-2.5c-0.1-0.5-0.3-1-0.4-1.6l-0.2,0
				c-0.8-0.2-1.8-0.5-2.2-1.3c-0.2-0.4-0.2-0.8-0.3-1.2c-0.1-1.1-0.2-2.1-0.2-3.2c-0.1-1.6-0.2-3.2,0.2-4.7c0.4-1.5,1.4-2.9,2.8-3.4
				l0,0.1c1-0.3,2.1-0.6,3.2-0.5c1.1,0,2.2,0.4,2.9,1.1c0.9,0.9,1.2,2.1,1.5,3.3c0.4,1.6,0.7,3.3,0.5,4.9c-0.2,1.6-1.1,3.1-2.6,3.8
				c0.3,0.6,0.6,1.1,0.9,1.7c0.2,0.3,0.3,0.5,0.6,0.7c0.4,0.3,0.9,0.5,1.4,0.6c1.6,0.5,3.1,1.3,4.2,2.6c0.4,0.5,0.8,1,1.3,1.5
				c1.7,1.1,3.1,2.9,3.8,4.8c0.6,1.6,0.7,3.4,0.9,5.1c0.3,3,0.8,6.1,2.1,8.8c0.4,0.9,1,1.8,1.4,2.7c1.2,2.9,1.1,6.1,1,9.2l-0.1,0
				c-0.5,4.3-1,8.6-1.6,12.9c-0.2,1.9-0.5,3.8-1,5.6c-0.3,1.1-0.8,2.3-1,3.4c-0.3,2-1.6,4.5,1,5.4c4.9,1.7,8.7,5.4,13.1,8.1
				c0.4,0.3,0.9,0.5,1.3,0.8c0.9,0.7,2,1.2,3.2,1.5c0.3,0.1,0.7,0.2,1,0.3c1.1,0.5,1.4,2.1,0.6,3c-0.6,0.6-1.6,0.9-2,1.6
				c-0.1,0.1-0.1,0.2-0.1,0.3l-0.9-0.4c-0.1-0.3,0-0.6,0.1-0.8l-1.5,0c0.1-0.2,0.2-0.5,0.3-0.7l-0.1,0c-1.1-3.4-4.9-3.2-8.5-5.3
				c-4.5-1.5-9.2-3-13.1-5.7c-0.5-0.3-1-0.7-1.2-1.3c-0.2-0.5-0.2-1-0.2-1.5c0.3-7,0.5-14,0.8-21.1l-0.1-0.1
				c-2.4,2.5-5.3,4.7-8.4,6.4l0,0c0.9,1.7,1.1,3.7,0.8,5.5c-0.1,0.6-0.3,1.1-0.2,1.7c0,0.3,0.1,0.6,0,0.9c0,0.3-0.2,0.6-0.5,0.6
				c-0.1,0-0.1,0-0.2,0c-0.1,0-0.1-0.1-0.1-0.2c-0.1-0.3-0.2-0.6-0.2-1l-0.2,0c0,1.3,0.1,2.5,0.2,3.8c0,0.4,0.1,0.8-0.3,1.1
				c-0.4-0.4-0.6-1.8-0.7-2.8c0,0.8,0.1,1.6,0.1,2.3c0,0.1,0,0.2-0.1,0.2c-0.1,0-0.1-0.1-0.1-0.1c-0.1-0.2-0.1-0.4-0.1-0.6
				c0-1.5-0.2-3.1-0.5-4.5c-0.2,0.4-0.3,0.8-0.3,1.2c0,1.1,0.8,2.2,0.6,3.3c-0.4-0.9-0.7-1.8-0.8-2.8c-0.1-0.8-0.2-1.5,0-2.3
				C224.7,403.7,224.8,403.3,224.9,403z"/>
			<path fill="#DCDCDD" d="M208.6,434.6c-0.8-0.1-1.5-0.1-2.3-0.1l0-0.1c-0.2-0.3-0.3-0.6-0.3-0.9
				C207,433.5,207.9,433.9,208.6,434.6z"/>
			<path fill="#DCDCDD" d="M208.4,435.8c-0.1,0.3-0.3,0.6-0.7,0.6c-0.4,0.1-0.9,0-1.3-0.1l-0.1-0.1c-0.3,0.3-0.7,0.5-1.1,0.6
				c-0.8,0.2-1.8,0-2.4-0.6c-0.3-0.3-0.5-0.7-0.4-1.1c0-0.2,0.1-0.4,0.2-0.6c0.2-0.6,0.2-1.2,0-1.8l0,0c0.7-0.3,1-1.1,1.3-1.9
				c0.8-2.1,1.7-6.1,1.7-6.1c0.5-4.3,2-7.7,3.3-11.4c0.6-1.1,1.5-2.5,2-3.7c0.4-1.1,0.5-2.3,1-3.4c0.4-0.9,1-1.7,1.6-2.5
				c3.5-4.6,7.1-9.2,10.8-13.7l0.1,0c0.3,3.1,0.6,6.1,0.9,9.2l-0.3,0c-1.8,2.3-4.9,3.3-7,5.3c-2.7,2.6-3.6,6.4-4.2,10.1
				c-0.3,1.5-0.5,2.9-1.1,4.3c-0.4,0.9-0.8,1.7-1.3,2.5c-1.9,3.4-3.6,6.9-5,10.5c-0.2,0.5-0.4,1.1-0.4,1.7c0,0.3,0.1,0.6,0.3,0.9
				l0,0.1c0.8,0,1.5,0,2.3,0.1c0.1,0,0.3,0,0.4,0c0.1,0,0.2,0,0.2,0.1c0,0.1,0.1,0.1,0.1,0.2C209.2,435.4,208.9,435.9,208.4,435.8z"
				/>
		</g>
		<g>
			<path fill="none" stroke="#231815" stroke-width="0.1" stroke-miterlimit="10" d="M245.4,385.4c-0.5,4.3-1,8.6-1.6,12.9
				c-0.2,1.9-0.5,3.8-1,5.6c-0.3,1.1-0.8,2.3-1,3.4c-0.3,2-1.6,4.5,1,5.4c4.9,1.7,8.7,5.4,13.1,8.1c0.4,0.3,0.9,0.5,1.3,0.8
				c0,0,0,0,0,0"/>
			<path fill="none" stroke="#231815" stroke-width="0.1" stroke-miterlimit="10" d="M206.3,434.5c-0.2-0.3-0.3-0.6-0.3-0.9
				c0-0.6,0.2-1.2,0.4-1.7c1.4-3.6,3-7.1,5-10.5c0.5-0.8,1-1.6,1.3-2.5c0.6-1.4,0.8-2.8,1.1-4.3c0.6-3.7,1.5-7.5,4.2-10.1
				c2.1-2,5.2-3,7-5.3c-0.1,0.2-0.1,0.4-0.2,0.5"/>
			<path fill="none" stroke="#231815" stroke-width="0.1" stroke-miterlimit="10" d="M235.8,391.5c-0.3,7-0.5,14-0.8,21.1
				c0,0.5,0,1,0.2,1.5c0.2,0.5,0.7,0.9,1.2,1.3c3.9,2.8,8.5,4.2,13.1,5.7c3.6,2.1,7.4,1.9,8.5,5.3"/>
			<path fill="none" stroke="#231815" stroke-width="0.1" stroke-miterlimit="10" d="M222.6,334.9c0,0-0.1,0-0.1,0
				c-1.4,0.5-2.4,1.9-2.8,3.4c-0.4,1.5-0.3,3.1-0.2,4.7c0.1,1.1,0.2,2.1,0.2,3.2c0,0.4,0.1,0.8,0.3,1.2c0.4,0.8,1.3,1.1,2.2,1.3"/>
			<path fill="none" stroke="#231815" stroke-width="0.1" stroke-miterlimit="10" d="M224,352.7c0.1,0,0.1,0.1,0.2,0.1"/>
			<path fill="none" stroke="#231815" stroke-width="0.1" stroke-miterlimit="10" d="M221.8,346.4c0.2,0.7,0.4,1.5,0.6,2.2
				c0.1,0.5,0.3,1.1,0.4,1.6c0.2,0.9,0.5,1.9,1.2,2.5"/>
			<path fill="none" stroke="#231815" stroke-width="0.1" stroke-miterlimit="10" d="M223.9,352.5c0,0.1,0,0.1,0,0.2c0,0,0,0,0,0
				c0,1.1-0.8,2.1-1.7,2.7c-0.9,0.7-2,1.3-2.8,2.2c-1.7,2.1-1.2,5.1-0.5,7.7c0.5,2.1,1,4.3,2,6.2c2.2,4.2,2.5,8,2.9,12.6
				c0.2,1.9,0.3,3.8,0.5,5.7c0.3,3.1,0.6,6.1,0.9,9.2c0,0.1,0,0.1,0,0.2"/>
			<path fill="none" stroke="#231815" stroke-width="0.1" stroke-miterlimit="10" d="M224.5,364.7c0.4,1.7,0.8,3.4,1.3,5.1
				c0.7,2.4,1.4,4.8,2.3,7.2c0.3,0.8,0.6,1.7,0.3,2.4c0,0,0,0.1,0,0.1"/>
			<path fill="none" stroke="#231815" stroke-width="0.1" stroke-miterlimit="10" d="M228.4,379.3c0,0.1,0,0.1,0,0.2
				c-0.1,1.8-0.3,3.7-0.4,5.5c-0.3,4.3-0.6,8.6-0.9,12.9"/>
			<path fill="none" stroke="#231815" stroke-width="0.1" stroke-miterlimit="10" d="M222.5,335.1c1-0.3,2.1-0.6,3.2-0.5
				c1.1,0,2.2,0.4,2.9,1.1c0.9,0.9,1.2,2.1,1.5,3.3c0.4,1.6,0.7,3.3,0.5,4.9c-0.2,1.6-1.1,3.1-2.6,3.8c-0.1,0-0.1,0-0.2,0.1"/>
			<path fill="none" stroke="#231815" stroke-width="0.1" stroke-miterlimit="10" d="M227.5,346.8c0.1,0.3,0.3,0.6,0.4,0.9
				c0.3,0.6,0.6,1.1,0.9,1.7c0.2,0.3,0.3,0.5,0.6,0.7c0.4,0.3,0.9,0.5,1.4,0.6c1.6,0.5,3.1,1.3,4.2,2.6c0.4,0.5,0.8,1,1.3,1.5
				c0.1,0,0.1,0.1,0.2,0.1"/>
			<path fill="none" stroke="#231815" stroke-width="0.1" stroke-miterlimit="10" d="M236.1,354.7c0,0,0.1,0.1,0.1,0.1
				c1.7,1.1,3.1,2.9,3.8,4.8c0.6,1.6,0.7,3.4,0.9,5.1c0.3,3,0.8,6.1,2.1,8.8c0.4,0.9,1,1.8,1.4,2.7c1.2,2.9,1.1,6.1,1,9.2
				c0,0.1,0,0.2,0,0.3"/>
			<path fill="none" stroke="#231815" stroke-width="0.1" stroke-miterlimit="10" d="M240.8,376.5c1,1.6,1.2,3.6,0.8,5.5
				c-0.4,1.8-1.4,3.5-2.4,5.1c-1,1.5-2.2,3-3.5,4.3c-2.4,2.5-5.3,4.7-8.4,6.4c0,0-0.1,0-0.1,0.1"/>
			<path fill="none" stroke="#231815" stroke-width="0.1" stroke-miterlimit="10" d="M226,369.8c0.2,0.9,1.5,1,2.2,1.7
				c0.3,0.3,0.5,0.8,0.7,1.2c0.6,1.5,1.2,3,1.8,4.6c0.1,0.2,0.2,0.4,0.2,0.6c0,0.2,0,0.4,0,0.7c-0.4,2.3-1.2,4.5-2.3,6.5"/>
			<path fill="none" stroke="#231815" stroke-width="0.1" stroke-miterlimit="10" d="M202.5,432.8c0,0,0.1,0,0.1-0.1
				c0.7-0.3,1-1.1,1.3-1.9c0.8-2.1,1.7-6.1,1.7-6.1c0.5-4.3,2-7.7,3.3-11.4c0.6-1.1,1.5-2.5,2-3.7c0.4-1.1,0.5-2.3,1-3.4
				c0.4-0.9,1-1.7,1.6-2.5c3.5-4.6,7.1-9.2,10.8-13.7"/>
			<path fill="none" stroke="#231815" stroke-width="0.1" stroke-miterlimit="10" d="M202.6,432.8c0.2,0.6,0.3,1.2,0,1.8
				c-0.1,0.2-0.2,0.4-0.2,0.6c-0.1,0.4,0.2,0.8,0.4,1.1c0.6,0.6,1.6,0.8,2.4,0.6c0.4-0.1,0.8-0.3,1.1-0.6c0.3-0.3,0.6-0.6,0.8-1"/>
			<path fill="none" stroke="#231815" stroke-width="0.1" stroke-miterlimit="10" d="M206.5,436.3c0.4,0.1,0.9,0.2,1.3,0.1
				c0.3-0.1,0.6-0.3,0.7-0.6c0-0.1,0-0.2,0-0.3"/>
			<path fill="none" stroke="#231815" stroke-width="0.1" stroke-miterlimit="10" d="M208.4,435.8L208.4,435.8
				c0.5,0.1,0.8-0.4,0.8-0.9c0-0.1,0-0.2-0.1-0.2c-0.1-0.1-0.1-0.1-0.2-0.1c-0.1,0-0.3,0-0.4,0c-0.8-0.1-1.5-0.1-2.3-0.1
				c-0.3,0-0.5,0-0.8,0"/>
			<path fill="none" stroke="#231815" stroke-width="0.1" stroke-miterlimit="10" d="M257.3,421.5
				C257.3,421.6,257.3,421.6,257.3,421.5c1,0.8,2.1,1.3,3.3,1.6c0.3,0.1,0.7,0.2,1,0.3c1.1,0.5,1.4,2.1,0.6,3
				c-0.6,0.6-1.6,0.9-2,1.6c-0.1,0.1-0.1,0.2-0.1,0.3c-0.2,0.6-0.2,1.4-0.5,2c-0.3,0.5-0.9,0.9-1.6,0.9s-1.3-0.1-1.9-0.3"/>
			<path fill="none" stroke="#231815" stroke-width="0.1" stroke-miterlimit="10" d="M256,431c-0.3-0.1-0.6,0.3-0.9,0.3
				c-0.3,0.1-0.7,0.1-0.9-0.2c-0.2-0.4,0.2-0.8,0.6-0.9c0.4-0.1,0.9-0.1,1.2-0.4c0.2-0.2,0.3-0.6,0.4-0.9c0.2-0.7,0.7-1.2,1.1-1.8
				c0.1-0.2,0.2-0.5,0.3-0.7c0.1-0.4,0.1-0.9-0.1-1.3"/>
			<path fill="none" stroke="#231815" stroke-width="0.1" stroke-miterlimit="10" d="M259,427.9c-0.1-0.3,0-0.6,0.1-0.8
				c0.1-0.2,0.3-0.4,0.5-0.5"/>
			<path fill="none" stroke="#231815" stroke-width="0.1" stroke-miterlimit="10" d="M259.2,425c-0.6,0.1-1.2,0.1-1.7-0.1"/>
			<path fill="none" stroke="#231815" stroke-width="0.1" stroke-miterlimit="10" d="M227.3,397.8c0.9,1.7,1.1,3.7,0.8,5.5
				c-0.1,0.6-0.3,1.1-0.2,1.7c0,0.3,0.1,0.6,0,0.9c0,0.3-0.2,0.6-0.5,0.6c-0.1,0-0.1,0-0.2,0c-0.1,0-0.1-0.1-0.1-0.2
				c-0.1-0.3-0.2-0.6-0.2-1c0-1.1,0.4-2.2,0.3-3.3"/>
			<path fill="none" stroke="#231815" stroke-width="0.1" stroke-miterlimit="10" d="M225.3,399.5c-0.1,1.2-0.1,2.4-0.4,3.5
				c-0.1,0.4-0.2,0.7-0.3,1.1c-0.1,0.8-0.1,1.5,0,2.3c0.2,0.9,0.4,1.9,0.8,2.8c0.2-1.1-0.6-2.2-0.6-3.3c0-0.4,0.1-0.8,0.3-1.2
				c0.6-1.4,1.8-2.6,1.7-4"/>
			<path fill="none" stroke="#231815" stroke-width="0.1" stroke-miterlimit="10" d="M225.2,404.5c0,0,0,0.1,0,0.1
				c0.3,1.5,0.5,3,0.5,4.5c0,0.2,0,0.4,0.1,0.6c0,0.1,0,0.1,0.1,0.1c0.1,0,0.1-0.1,0.1-0.2c0-0.8-0.1-1.6-0.1-2.3
				c-0.1-1.2-0.1-2.4-0.2-3.6"/>
			<path fill="none" stroke="#231815" stroke-width="0.1" stroke-miterlimit="10" d="M225.9,407c0,0.1,0,0.2,0,0.3
				c0.1,0.9,0.3,2.4,0.7,2.8c0.3-0.2,0.3-0.7,0.3-1.1c-0.1-1.2-0.2-2.5-0.2-3.8c0-0.7,0-1.4,0-2.2"/>
			<path fill="none" stroke="#231815" stroke-width="0.1" stroke-miterlimit="10" d="M230.4,354.6c1.6,1.1,1.9,0.9,2.9,2.5"/>
			<path fill="none" stroke="#231815" stroke-width="0.1" stroke-miterlimit="10" d="M234.3,358.1c0.3,0.5,0.6,1,0.9,1.5"/>
			<path fill="none" stroke="#231815" stroke-width="0.1" stroke-miterlimit="10" d="M235.9,360.7c0.3,0.7,1.6,2.2,1.9,2.9"/>
			<path fill="none" stroke="#231815" stroke-width="0.1" stroke-miterlimit="10" d="M209,435.1c-0.1-0.2-0.3-0.4-0.5-0.6
				c-0.7-0.7-1.6-1-2.5-1c0,0-0.1,0-0.1,0"/>
		</g>
	</g>
</g>
<g>
	<g>
		<path fill="#231815" d="M245.1,385.4c-0.7,5.5-1.2,11.1-2.1,16.6c-0.5,3.1-2.3,6.2-1.9,9.4c0.2,1.6,3.7,2.5,4.4,2.8
			c4.2,2,7.7,5.3,11.7,7.6c0.3,0.2,0.5-0.3,0.3-0.4c-2.7-1.6-5.2-3.4-7.8-5.2c-2.9-2-8.8-3.6-7.8-7.8c1.7-7.7,2.8-15.2,3.7-23
			C245.6,385.1,245.1,385.1,245.1,385.4L245.1,385.4z"/>
	</g>
</g>
<g>
	<g>
		<path fill="#231815" d="M206.6,434.4c-0.7-3.7,2.6-8.3,4.2-11.4c1.2-2.3,2.3-4.2,2.9-6.8c0.7-3.3,1.1-6.3,2.8-9.3
			c1.6-3.1,7-4,8.1-7.1c-0.1,0.3,0.4,0.4,0.5,0.1c0.1-0.2,0.1-0.4,0.2-0.5c0.1-0.2-0.2-0.4-0.4-0.2c-2.3,2.4-6,3.6-8,6.4
			c-1.9,2.8-2.7,5.8-3.3,9.1c-0.9,4.7-3.4,8.4-5.4,12.6c-1.1,2.3-2.6,4.7-2.1,7.3C206.1,434.8,206.6,434.7,206.6,434.4L206.6,434.4z
			"/>
	</g>
</g>
<g>
	<g>
		<path fill="#231815" d="M235.6,391.5c-0.2,5.1-0.4,10.2-0.6,15.3c-0.1,1.9-1.3,6.6,0.5,8.1c2.3,1.9,5.1,3.1,7.8,4.2
			c4,1.6,12.4,3.1,14.3,7.3c0.1,0.3,0.6,0,0.4-0.3c-2.2-4.7-10.2-5.9-14.6-7.5c-2-0.7-3.8-1.7-5.7-2.7c-3.6-2.1-2.5-5.9-2.3-9.2
			c0.2-5.1,0.4-10.2,0.6-15.3C236.1,391.2,235.6,391.2,235.6,391.5L235.6,391.5z"/>
	</g>
</g>
<g>
	<g>
		<g>
			<path fill="#231815" d="M222.4,334.7c-3,1.3-3.4,4.4-3.3,7.4c0.1,3.1-0.4,5.9,2.9,6.9c0.3,0.1,0.4-0.4,0.1-0.5
				c-2.8-0.8-2.4-4.1-2.6-6.4c-0.2-2.7,0.2-5.7,3-6.9C223,335,222.7,334.6,222.4,334.7L222.4,334.7z"/>
		</g>
	</g>
	<g>
		<g>
			<path fill="#231815" d="M221.5,346.5c0.3,1.4,0.7,2.8,1,4.2c0.2,0.9,0.6,1.8,1.4,2.4c0.2,0.2,0.6-0.1,0.4-0.4
				c-0.9-0.8-1.2-1.9-1.4-3c-0.3-1.1-0.6-2.2-0.8-3.3C221.9,346.1,221.5,346.2,221.5,346.5L221.5,346.5z"/>
		</g>
	</g>
	<g>
		<g>
			<path fill="#231815" d="M223.7,352.5c-0.5,2.9-4.6,4.5-5.5,7.5c-0.8,2.6,0.6,6.3,1.3,8.7c1.3,4.9,3.4,8.7,3.9,13.9
				c0.6,5.6,1,11.2,1.6,16.8c0,0.3,0.5,0.3,0.5,0c-0.8-8.1-0.7-16.8-3-24.7c-1.3-4.6-3.6-8.4-3.9-13.3c-0.3-4.2,5-5.2,5.6-8.8
				C224.2,352.3,223.8,352.1,223.7,352.5L223.7,352.5z"/>
		</g>
	</g>
	<g>
		<g>
			<path fill="#231815" d="M224.3,364.8c0.6,2.4,1.2,4.8,1.9,7.2c0.7,2.3,2.3,5.1,2,7.5c0,0.3,0.4,0.5,0.5,0.1
				c0.3-2-0.7-3.8-1.3-5.7c-1-3-1.8-6.1-2.6-9.3C224.7,364.3,224.2,364.5,224.3,364.8L224.3,364.8z"/>
		</g>
	</g>
	<g>
		<g>
			<path fill="#231815" d="M228.2,379.3c-0.4,6.2-0.9,12.4-1.3,18.6c0,0.3,0.5,0.3,0.5,0c0.4-6.2,0.9-12.4,1.3-18.6
				C228.7,378.9,228.2,378.9,228.2,379.3L228.2,379.3z"/>
		</g>
	</g>
	<g>
		<g>
			<path fill="#231815" d="M222.5,335.3c1.1-0.3,2-0.5,3.1-0.5c2.8-0.1,3.7,2.2,4.2,4.3c0.7,3,1.2,6.8-2.2,8.5
				c-0.3,0.1,0,0.6,0.3,0.4c3.8-1.9,3.1-6.3,2.2-9.7c-1-3.9-4.3-4.4-7.7-3.4C222.1,334.9,222.2,335.4,222.5,335.3L222.5,335.3z"/>
		</g>
	</g>
	<g>
		<g>
			<path fill="#231815" d="M227.3,346.9c0.6,1.4,1.3,3.3,2.9,3.9c1.2,0.4,2.3,0.9,3.4,1.6c1.1,0.7,1.7,1.8,2.6,2.7
				c0.2,0.2,0.6-0.1,0.4-0.4c-1.4-1.3-2.4-2.7-4.2-3.6c-0.8-0.4-1.7-0.6-2.5-1c-1.1-0.5-1.8-2.5-2.2-3.5
				C227.6,346.4,227.2,346.6,227.3,346.9L227.3,346.9z"/>
		</g>
	</g>
	<g>
		<g>
			<path fill="#231815" d="M236,354.9c5,3.7,4.3,9.7,5.6,15.2c0.4,1.7,1.2,3.3,2,4.8c1.8,3.4,1.8,7,1.6,10.7c0,0.3,0.5,0.3,0.5,0
				c0.1-2.8,0.1-5.4-0.4-8.1c-0.7-3.3-2.8-6.1-3.5-9.4c-1.2-5.5-0.5-10.1-5.4-13.8C236,354.3,235.8,354.7,236,354.9L236,354.9z"/>
		</g>
	</g>
	<g>
		<g>
			<path fill="#231815" d="M240.6,376.7c4.4,8.3-7.3,17.5-13.5,21c-0.3,0.2,0,0.6,0.3,0.4c6.6-3.6,18.2-13,13.7-21.6
				C240.9,376.1,240.5,376.4,240.6,376.7L240.6,376.7z"/>
		</g>
	</g>
	<g>
		<g>
			<path fill="#231815" d="M225.8,369.9c0.4,0.8,0.3,0.5,1,1c1.5,1,1.9,1.9,2.6,3.6c0.6,1.7,1.4,2.9,1,4.8c-0.4,1.9-1.2,3.7-2.1,5.4
				c-0.2,0.3,0.3,0.5,0.4,0.3c1.2-2.2,3-5.4,2.2-7.9c-0.5-1.5-1.2-3.1-1.8-4.6c-0.7-1.6-2.1-1.5-2.9-2.9
				C226,369.4,225.6,369.6,225.8,369.9L225.8,369.9z"/>
		</g>
	</g>
	<g>
		<g>
			<path fill="#231815" d="M202.7,433c3.8-3.4,3.8-11.9,5.4-16.4c1.3-3.6,3.4-9.7,5.7-12.7c3.4-4.7,7.1-9.1,10.7-13.6
				c0.2-0.2-0.2-0.6-0.4-0.4c-3.2,4-6.4,8.1-9.6,12.2c-2.6,3.3-3.1,6.4-5.1,10c-1.8,3.3-2.9,7.2-3.7,10.9c-0.7,3.1-0.8,7.5-3.3,9.7
				C202.1,432.9,202.4,433.2,202.7,433L202.7,433z"/>
		</g>
	</g>
	<g>
		<g>
			<path fill="#231815" d="M202.4,432.9c0.2,0.6,0.2,1.1,0,1.7c-0.1,0.3-0.3,0.6-0.2,1c0.2,0.7,0.7,1.2,1.3,1.4
				c1.6,0.6,3.1-0.2,3.9-1.6c0.2-0.3-0.3-0.5-0.4-0.3c-0.7,1.3-2.1,2-3.5,1.3c-1-0.5-0.6-1.5-0.4-2.3c0.1-0.5,0-0.9-0.2-1.3
				C202.8,432.4,202.3,432.6,202.4,432.9L202.4,432.9z"/>
		</g>
	</g>
	<g>
		<g>
			<path fill="#231815" d="M206.4,436.5c0.6,0.2,1.2,0.3,1.7,0c0.4-0.2,0.6-0.7,0.5-1.1c0-0.3-0.5-0.2-0.5,0.1
				c0.1,0.9-1.2,0.7-1.6,0.5C206.3,435.9,206.1,436.4,206.4,436.5L206.4,436.5z"/>
		</g>
	</g>
	<g>
		<g>
			<path fill="#231815" d="M208.3,436c0.7,0.1,1.4-0.7,1.1-1.4c-0.2-0.4-0.7-0.3-1.1-0.3c-1-0.1-1.9-0.1-2.9,0c-0.3,0-0.3,0.5,0,0.5
				c0.7,0,1.3,0,2,0c0.3,0,0.6,0,0.9,0c0.2,0,0.4,0,0.6,0.1c0,0.3-0.2,0.6-0.5,0.7C208.2,435.5,208,436,208.3,436L208.3,436z"/>
		</g>
	</g>
	<g>
		<g>
			<path fill="#231815" d="M257.2,421.8c0.7,0.5,1.4,0.9,2.2,1.2c0.6,0.2,1.1,0.4,1.7,0.5c2.8,0.7,0.8,3-0.3,3.6
				c-0.3,0.2-0.7,0.5-0.9,0.8c-0.2,0.6-0.3,1.1-0.4,1.8c-0.3,1.6-2.2,1.3-3.3,1c-0.3-0.1-0.4,0.4-0.1,0.5c1.4,0.4,2.7,0.5,3.7-0.7
				c0.4-0.5,0.4-1.3,0.5-1.9c0.2-1.2,1.6-1.2,2.2-2.1c0.5-0.8,0.7-2,0-2.8c-0.4-0.4-0.7-0.6-1.3-0.8c-1.3-0.5-2.5-0.8-3.7-1.7
				C257.1,421.1,256.9,421.6,257.2,421.8L257.2,421.8z"/>
		</g>
	</g>
	<g>
		<g>
			<path fill="#231815" d="M256,430.7c-0.1,0-0.3,0-0.4,0.1c-0.3,0.3-0.5,0.2-0.6-0.4c0.2,0,0.4-0.1,0.7-0.1c0.4-0.1,0.8-0.3,1-0.7
				c0.6-1.4,2.2-3,1.5-4.6c-0.1-0.3-0.6-0.2-0.5,0.1c0.5,1.4-0.8,2.5-1.3,3.7c-0.2,0.6-0.5,1-1.2,1.1c-0.5,0.1-0.7,0.2-1,0.5
				c-0.4,0.3-0.2,0.8,0.1,1.1c0.5,0.4,1.3-0.2,1.7-0.3C256.4,431.2,256.4,430.7,256,430.7L256,430.7z"/>
		</g>
	</g>
	<g>
		<g>
			<path fill="#231815" d="M259.3,427.8c-0.1-0.4,0.2-0.8,0.5-1c0.3-0.2,0-0.6-0.3-0.4c-0.6,0.3-0.9,0.9-0.8,1.6
				C258.9,428.3,259.3,428.2,259.3,427.8L259.3,427.8z"/>
		</g>
	</g>
	<g>
		<g>
			<path fill="#231815" d="M259.2,424.8c-0.5,0.1-1.1,0.1-1.6-0.1c-0.3-0.1-0.4,0.4-0.1,0.5c0.6,0.2,1.2,0.2,1.9,0.1
				C259.6,425.2,259.5,424.7,259.2,424.8L259.2,424.8z"/>
		</g>
	</g>
	<path fill="none" stroke="#231815" stroke-width="0.4" stroke-miterlimit="10" d="M227.3,397.8c0.9,1.7,1.1,3.7,0.8,5.5
		c-0.1,0.6-0.3,1.1-0.2,1.7c0,0.3,0.1,0.6,0,0.9s-0.2,0.6-0.5,0.6c-0.1,0-0.1,0-0.2,0c-0.1,0-0.1-0.1-0.1-0.2
		c-0.6-1.3,0.3-2.8,0.1-4.3"/>
	<path fill="none" stroke="#231815" stroke-width="0.4" stroke-miterlimit="10" d="M226.3,403.7"/>
	<path fill="none" stroke="#231815" stroke-width="0.4" stroke-miterlimit="10" d="M226.3,403.7"/>
	<path fill="none" stroke="#231815" stroke-width="0.4" stroke-miterlimit="10" d="M225.3,399.5c-0.1,1.2-0.1,2.4-0.4,3.5
		c-0.1,0.4-0.2,0.7-0.3,1.1c-0.1,0.8-0.1,1.5,0,2.3c0.2,0.9,0.4,1.9,0.8,2.8c0.2-1.1-0.6-2.2-0.6-3.3c0-1.9,2.2-3.4,2-5.3"/>
	<path fill="none" stroke="#231815" stroke-width="0.4" stroke-miterlimit="10" d="M225.2,404.5c0.3,1.5,0.5,3.1,0.5,4.6
		c0,0.2,0,0.4,0.1,0.6c0,0.1,0.1,0.1,0.1,0.1c0.1,0,0.1-0.1,0.1-0.2c-0.1-2-0.2-4-0.3-5.9"/>
	<path fill="none" stroke="#231815" stroke-width="0.4" stroke-miterlimit="10" d="M225.9,407c0.1,0.8,0.3,2.7,0.7,3.1
		c0.3-0.2,0.3-0.7,0.3-1.1c-0.2-2-0.3-3.9-0.2-5.9"/>
	<g>
		<g>
			<path fill="#231815" d="M230.3,354.7c0.5,0.4,1.1,0.6,1.6,1c0.6,0.4,0.9,0.9,1.3,1.5c0.1,0.1,0.3,0,0.3-0.1
				c-0.3-0.5-0.6-1.1-1.1-1.4c-0.5-0.4-1.2-0.7-1.8-1.1C230.4,354.4,230.2,354.6,230.3,354.7L230.3,354.7z"/>
		</g>
	</g>
	<g>
		<g>
			<path fill="#231815" d="M234.2,358.2c0.3,0.5,0.6,1,0.9,1.5c0.1,0.1,0.3,0,0.3-0.1c-0.3-0.5-0.6-1-0.9-1.5
				C234.4,358,234.1,358.1,234.2,358.2L234.2,358.2z"/>
		</g>
	</g>
	<g>
		<g>
			<path fill="#231815" d="M235.7,360.8c0.5,1.1,1.4,1.8,1.9,2.9c0,0.1,0.3,0,0.3-0.1c-0.5-1.1-1.4-1.8-1.9-2.9
				C236,360.6,235.7,360.7,235.7,360.8L235.7,360.8z"/>
		</g>
	</g>
	<g>
		<g>
			<path fill="#231815" d="M209.2,435.1c-0.7-1.1-1.9-1.7-3.2-1.6c-0.2,0-0.2,0.2,0,0.2c1.2,0,2.3,0.5,3,1.6
				C209,435.3,209.2,435.2,209.2,435.1L209.2,435.1z"/>
		</g>
	</g>
</g>
<rect x="253.6" y="517" fill="#DCDCDD" stroke="#231815" stroke-width="0.1" stroke-miterlimit="10" width="72" height="72"/>
</svg>
