<?xml version="1.0" encoding="utf-8"?>
<!-- Generator: Adobe Illustrator 18.0.0, SVG Export Plug-In . SVG Version: 6.00 Build 0)  -->
<!DOCTYPE svg PUBLIC "-//W3C//DTD SVG 1.1//EN" "http://www.w3.org/Graphics/SVG/1.1/DTD/svg11.dtd">
<svg version="1.1" id="圖層_4" xmlns="http://www.w3.org/2000/svg" xmlns:xlink="http://www.w3.org/1999/xlink" x="0px" y="0px"
	 viewBox="0 0 95.6 164" enable-background="new 0 0 95.6 164" xml:space="preserve">
<g>
	<g id="XMLID_1_">
		<g>
			<path fill="#FFFFFF" d="M48.1,74c-0.4,2.9-0.9,5.7-1.3,8.6l0.7,0.1c2.1-3,3.6-6.3,4.5-9.8c0.1-0.3,0.2-0.7,0.2-1
				c0-0.3-0.1-0.6-0.2-0.9c-0.7-2.5-1.4-4.9-2.2-7.4c-0.2-0.7-0.4-1.5-0.9-2c-1-1.1-3-1.5-3.2-2.9l-0.3,0.1
				c0.7,3.9,1.6,7.7,2.6,11.5C48.3,71.4,48.6,72.8,48.1,74z M40.6,117.3c0,1.2-0.1,2.4-0.1,3.7c0,0.2-0.1,0.4-0.2,0.3
				c-0.1,0-0.1-0.1-0.2-0.2c-0.1-0.3,0-0.7,0-1c0.2-2.4,0.1-4.8-0.2-7.2c-0.3,0.6-0.5,1.2-0.6,1.9c-0.1,1.8,0.9,3.5,0.5,5.2
				c-0.5-1.4-0.8-2.9-0.9-4.4c-0.1-1.2-0.1-2.4,0.2-3.6c0.2-0.6,0.4-1.1,0.5-1.6c0.6-1.8,0.8-3.6,1.1-5.5l0-0.1c0-0.1,0-0.2,0-0.3
				c-0.1-4.8-0.2-9.7-0.2-14.5c0-3,0-6-0.1-9.1c0-7.2,0-13.4-2.8-20.2c-1.3-3.2-1.9-6.6-2.4-10c-0.6-4.2-1.1-9,1.9-12.1
				c1.3-1.3,3.1-2.1,4.6-3.1c1.5-1,2.8-2.4,3-4.1c0,0,0,0,0,0c-1-1-1.3-2.6-1.6-4.1c-0.1-0.8-0.3-1.7-0.4-2.5l-0.3,0
				c-1.3-0.4-2.7-1-3.2-2.3c-0.2-0.6-0.2-1.2-0.2-1.9c0-1.7,0-3.4,0-5.1c0-2.5,0-5,0.9-7.3c0.8-2.2,2.5-4.3,4.8-4.9l0,0.2
				c1.7-0.4,3.4-0.6,5.1-0.4c1.7,0.2,3.4,0.9,4.5,2.2c1.3,1.5,1.6,3.5,1.9,5.4c0.4,2.6,0.7,5.2,0.1,7.7c-0.6,2.4-2.2,4.8-4.6,5.6
				c0.4,0.9,0.8,1.8,1.2,2.7c0.2,0.4,0.4,0.9,0.8,1.2c0.5,0.6,1.3,0.9,2,1.2c2.4,1,4.7,2.5,6.3,4.6c0.6,0.8,1.1,1.7,1.8,2.5
				c2.6,2,4.5,4.9,5.3,8.1c0.7,2.6,0.7,5.4,0.7,8.1c0.1,4.8,0.4,9.6,2.2,14c0.6,1.5,1.3,2.9,1.8,4.4c1.6,4.7,1,9.7,0.3,14.6l-0.1,0
				c-1.4,6.7-2.8,13.3-4.2,19.9c-0.6,2.9-1.2,5.9-2.3,8.7c-0.7,1.8-1.5,3.4-2,5.3c-0.8,3.2-3.1,6.9,0.9,8.7
				c7.4,3.3,12.9,9.7,19.5,14.4c0.6,0.5,1.3,0.9,2,1.4c1.4,1.2,3,2.2,4.8,2.8c0.5,0.2,1.1,0.3,1.6,0.6c1.6,1,1.9,3.6,0.5,4.8
				c-1,0.9-2.6,1.1-3.4,2.2c-0.7,1-0.6,2.5-1.3,3.5c-0.6,0.8-1.6,1.2-2.6,1.2c-1,0-2-0.3-2.9-0.7c-0.5-0.2-1,0.3-1.5,0.4
				c-0.5,0.1-1.1,0-1.3-0.4c-0.3-0.6,0.5-1.3,1.1-1.4c0.7-0.1,1.5,0,2-0.4c0.4-0.3,0.6-0.9,0.8-1.4c0.5-1,1.3-1.8,1.9-2.7
				c0.2-0.3,0.4-0.7,0.6-1.1l-0.2,0c-1.2-5.5-7.2-5.7-12.5-9.5c-6.9-3-14-5.9-19.7-10.7c-0.7-0.6-1.4-1.3-1.7-2.1
				c-0.2-0.8-0.2-1.6,0-2.3c1.4-11,2.7-22,4.1-32.9L58,93.7c-4.2,3.7-8.9,6.7-14,8.8l0,0c1.1,2.8,1.3,5.9,0.5,8.8
				c-0.2,0.9-0.6,1.7-0.6,2.6c0,0.5,0.1,0.9,0,1.3c-0.1,0.4-0.5,0.9-0.9,0.9c-0.1,0-0.2,0-0.2-0.1c-0.1-0.1-0.1-0.2-0.1-0.2
				c-0.2-0.5-0.2-1-0.2-1.6l-0.4,0c-0.2,2-0.2,3.9-0.2,5.9c0,0.6,0,1.3-0.5,1.6C40.7,121.1,40.6,118.8,40.6,117.3z"/>
			<path fill="#FFFFFF" d="M9.3,159.6c-0.1,0.5-0.6,0.8-1.1,0.9c-0.7,0.1-1.3-0.1-2-0.4L6.1,160c-0.6,0.4-1.2,0.7-1.9,0.8
				c-1.3,0.3-2.8-0.2-3.7-1.2c-0.4-0.5-0.7-1.1-0.5-1.7c0.1-0.3,0.2-0.6,0.4-0.9c0.4-0.9,0.5-1.9,0.2-2.8l0,0
				c1.1-0.5,1.8-1.7,2.3-2.8c1.6-3.2,3.5-9.4,3.5-9.4c1.4-6.6,4.1-11.8,6.7-17.4c1.1-1.7,2.7-3.7,3.6-5.6c0.8-1.7,1.1-3.6,2-5.2
				c0.7-1.4,1.8-2.5,2.8-3.7c6.2-6.7,12.4-13.4,18.7-20h0.2c0,4.8,0.1,9.7,0.2,14.5l-0.5,0c-3.2,3.4-8.1,4.5-11.7,7.4
				c-4.5,3.7-6.5,9.6-8,15.2c-0.6,2.2-1.1,4.5-2.2,6.6c-0.7,1.3-1.5,2.5-2.4,3.7c-3.5,5-6.5,10.3-9.2,15.8c-0.4,0.8-0.8,1.7-0.8,2.6
				c1.5,0.1,2.9,0.8,3.8,1.9c0.2,0,0.4,0.1,0.6,0.1c0.1,0,0.2,0.1,0.3,0.1c0.1,0.1,0.1,0.2,0.1,0.3C10.6,159.1,10,159.9,9.3,159.6z"
				/>
		</g>
		<g>
			<path fill="none" stroke="#000000" stroke-width="0.1" stroke-miterlimit="10" d="M73.9,85.5c-1.4,6.7-2.8,13.3-4.2,19.9
				c-0.6,2.9-1.2,5.9-2.3,8.7c-0.7,1.8-1.5,3.4-2,5.3c-0.8,3.2-3.1,6.9,0.9,8.7c7.4,3.3,12.9,9.7,19.5,14.4c0.6,0.5,1.3,0.9,2,1.4
				c0,0,0,0,0.1,0"/>
			<path fill="none" stroke="#000000" stroke-width="0.1" stroke-miterlimit="10" d="M6.2,157.3c-0.2-0.4-0.3-0.9-0.3-1.4
				c0-0.9,0.4-1.8,0.8-2.6c2.7-5.5,5.7-10.8,9.2-15.8c0.8-1.2,1.7-2.4,2.4-3.7c1.1-2.1,1.6-4.3,2.2-6.6c1.5-5.6,3.4-11.6,8-15.2
				c3.6-2.9,8.5-4,11.7-7.4c-0.1,0.3-0.2,0.5-0.4,0.8"/>
			<path fill="none" stroke="#000000" stroke-width="0.1" stroke-miterlimit="10" d="M58.2,93.9c-1.4,11-2.7,21.9-4.1,32.9
				c-0.1,0.8-0.2,1.6,0,2.3c0.3,0.9,1,1.5,1.7,2.1c5.7,4.9,12.8,7.7,19.7,10.7c5.4,3.8,11.3,4,12.5,9.5"/>
			<path fill="none" stroke="#000000" stroke-width="0.1" stroke-miterlimit="10" d="M44.9,3.4c-0.1,0-0.1,0-0.2,0.1
				c-2.3,0.6-4,2.7-4.8,4.9C39,10.7,39,13.2,39,15.7c0,1.7,0,3.4,0,5.1c0,0.6,0,1.3,0.2,1.9c0.5,1.3,2,1.9,3.2,2.3"/>
			<path fill="none" stroke="#000000" stroke-width="0.1" stroke-miterlimit="10" d="M44.7,31.5c0.1,0.1,0.2,0.2,0.3,0.2"/>
			<path fill="none" stroke="#000000" stroke-width="0.1" stroke-miterlimit="10" d="M42.2,21.3c0.2,1.2,0.4,2.4,0.6,3.5
				c0.1,0.9,0.3,1.7,0.4,2.5c0.2,1.5,0.5,3.1,1.6,4.1"/>
			<path fill="none" stroke="#000000" stroke-width="0.1" stroke-miterlimit="10" d="M44.7,31.2c0,0.1,0,0.2,0,0.3c0,0,0,0,0,0
				c-0.2,1.7-1.5,3.1-3,4.1c-1.5,1-3.3,1.8-4.6,3.1c-3,3-2.5,7.9-1.9,12.1c0.5,3.4,1,6.8,2.4,10c2.8,6.8,2.8,12.9,2.8,20.2
				c0,3,0,6,0.1,9.1c0,4.8,0.1,9.7,0.2,14.5c0,0.1,0,0.2,0,0.3"/>
			<path fill="none" stroke="#000000" stroke-width="0.1" stroke-miterlimit="10" d="M44,50.4c0.4,2.8,0.8,5.5,1.4,8.2
				c0.7,3.9,1.6,7.7,2.6,11.5c0.3,1.3,0.7,2.7,0.2,3.9c0,0,0,0.1-0.1,0.2"/>
			<path fill="none" stroke="#000000" stroke-width="0.1" stroke-miterlimit="10" d="M48.2,73.7c0,0.1,0,0.2-0.1,0.3
				c-0.4,2.9-0.9,5.7-1.3,8.6c-1,6.7-2.1,13.4-3.1,20.1"/>
			<path fill="none" stroke="#000000" stroke-width="0.1" stroke-miterlimit="10" d="M44.7,3.6c1.7-0.4,3.4-0.6,5.1-0.4
				c1.7,0.2,3.4,0.9,4.5,2.2c1.3,1.5,1.6,3.5,1.9,5.4c0.4,2.6,0.7,5.2,0.1,7.7c-0.6,2.4-2.2,4.8-4.6,5.6c-0.1,0-0.2,0.1-0.3,0.1"/>
			<path fill="none" stroke="#000000" stroke-width="0.1" stroke-miterlimit="10" d="M51.1,22.7c0.2,0.5,0.3,1,0.5,1.5
				c0.4,0.9,0.8,1.8,1.2,2.7c0.2,0.4,0.4,0.9,0.8,1.2c0.5,0.6,1.3,0.9,2,1.2c2.4,1,4.7,2.5,6.3,4.6c0.6,0.8,1.1,1.7,1.8,2.5
				c0.1,0.1,0.2,0.2,0.2,0.2"/>
			<path fill="none" stroke="#000000" stroke-width="0.1" stroke-miterlimit="10" d="M63.6,36.2c0.1,0,0.1,0.1,0.2,0.2
				c2.6,2,4.5,4.9,5.3,8.1c0.7,2.6,0.7,5.4,0.7,8.1c0.1,4.8,0.4,9.6,2.2,14c0.6,1.5,1.3,2.9,1.8,4.4c1.6,4.7,1,9.7,0.3,14.6
				c0,0.1,0,0.3-0.1,0.4"/>
			<path fill="none" stroke="#000000" stroke-width="0.1" stroke-miterlimit="10" d="M68,71.1c1.4,2.6,1.4,5.8,0.6,8.7
				c-0.9,2.8-2.6,5.4-4.5,7.7c-1.8,2.3-3.9,4.4-6,6.3c-4.2,3.7-8.9,6.7-14,8.8c-0.1,0-0.1,0.1-0.2,0.1"/>
			<path fill="none" stroke="#000000" stroke-width="0.1" stroke-miterlimit="10" d="M45.7,58.5c0.2,1.5,2.2,1.8,3.2,2.9
				c0.5,0.6,0.7,1.3,0.9,2c0.7,2.5,1.5,4.9,2.2,7.4c0.1,0.3,0.2,0.6,0.2,0.9c0,0.3-0.1,0.7-0.2,1c-0.9,3.5-2.5,6.8-4.5,9.8"/>
			<path fill="none" stroke="#000000" stroke-width="0.1" stroke-miterlimit="10" d="M0.4,154.2c0.1,0,0.1,0,0.2-0.1
				c1.1-0.5,1.8-1.7,2.3-2.8c1.6-3.2,3.5-9.4,3.5-9.4c1.4-6.6,4.1-11.8,6.7-17.4c1.1-1.7,2.7-3.7,3.6-5.6c0.8-1.7,1.1-3.6,2-5.2
				c0.7-1.4,1.8-2.5,2.8-3.7c6.2-6.7,12.4-13.4,18.7-20"/>
			<path fill="none" stroke="#000000" stroke-width="0.1" stroke-miterlimit="10" d="M0.6,154.2c0.3,0.9,0.2,1.9-0.2,2.8
				c-0.1,0.3-0.3,0.6-0.4,0.9c-0.1,0.6,0.1,1.3,0.5,1.7c0.9,1,2.3,1.5,3.7,1.2c0.7-0.1,1.3-0.4,1.9-0.8c0.5-0.4,1-0.9,1.3-1.5"/>
			<path fill="none" stroke="#000000" stroke-width="0.1" stroke-miterlimit="10" d="M6.2,160.1c0.6,0.3,1.3,0.5,2,0.4
				c0.5-0.1,1-0.4,1.1-0.9c0.1-0.2,0.1-0.3,0.1-0.5"/>
			<path fill="none" stroke="#000000" stroke-width="0.1" stroke-miterlimit="10" d="M9.3,159.6L9.3,159.6c0.7,0.3,1.4-0.6,1.4-1.3
				c0-0.1,0-0.2-0.1-0.3c-0.1-0.1-0.2-0.1-0.3-0.1c-0.2,0-0.4-0.1-0.6-0.1c-1.6-0.2-3.2-0.4-4.8-0.4"/>
			<path fill="none" stroke="#000000" stroke-width="0.1" stroke-miterlimit="10" d="M87.8,143.8C87.8,143.8,87.9,143.9,87.8,143.8
				c1.5,1.3,3.1,2.3,4.9,2.9c0.5,0.2,1.1,0.3,1.6,0.6c1.6,1,1.9,3.6,0.5,4.8c-1,0.9-2.6,1.1-3.4,2.2c-0.7,1-0.6,2.5-1.3,3.5
				c-0.6,0.8-1.6,1.2-2.6,1.2c-1,0-2-0.3-2.9-0.7"/>
			<path fill="none" stroke="#000000" stroke-width="0.1" stroke-miterlimit="10" d="M84.6,158.4c-0.5-0.2-1,0.3-1.5,0.4
				c-0.5,0.1-1.1,0-1.3-0.4c-0.3-0.6,0.5-1.3,1.1-1.4c0.7-0.1,1.5,0,2-0.4c0.4-0.3,0.6-0.9,0.8-1.4c0.5-1,1.3-1.8,1.9-2.7
				c0.2-0.3,0.4-0.7,0.6-1.1c0.3-0.7,0.3-1.4,0.1-2.1"/>
			<path fill="none" stroke="#000000" stroke-width="0.1" stroke-miterlimit="10" d="M89.7,154c-0.1-0.8,0.4-1.7,1.2-2"/>
			<path fill="none" stroke="#000000" stroke-width="0.1" stroke-miterlimit="10" d="M90.4,149.5c-0.9,0.1-1.8,0-2.7-0.4"/>
			<path fill="none" stroke="#000000" stroke-width="0.4" stroke-miterlimit="10" d="M44,102.6c1.1,2.8,1.3,5.9,0.5,8.8
				c-0.2,0.9-0.6,1.7-0.6,2.6c0,0.5,0.1,0.9,0,1.3c-0.1,0.4-0.5,0.9-0.9,0.9c-0.1,0-0.2,0-0.2-0.1c-0.1-0.1-0.1-0.2-0.1-0.2
				c-0.2-0.5-0.2-1-0.2-1.6c0.1-1.7,0.9-3.4,0.9-5.1"/>
			<path fill="none" stroke="#000000" stroke-width="0.4" stroke-miterlimit="10" d="M40.6,104.9c-0.2,1.8-0.5,3.7-1.1,5.5
				c-0.2,0.5-0.4,1.1-0.5,1.6c-0.3,1.2-0.3,2.4-0.2,3.6c0.1,1.5,0.4,3,0.9,4.4c0.5-1.7-0.6-3.5-0.5-5.2c0.1-0.7,0.3-1.3,0.6-1.9
				c1.1-2.1,3.2-3.8,3.2-6.1"/>
			<path fill="none" stroke="#000000" stroke-width="0.4" stroke-miterlimit="10" d="M39.8,112.8c0,0.1,0,0.1,0,0.2
				c0.3,2.4,0.4,4.8,0.2,7.2c0,0.3,0,0.7,0,1c0,0.1,0.1,0.2,0.2,0.2c0.2,0,0.2-0.2,0.2-0.3c0-1.2,0.1-2.4,0.1-3.7
				c0.1-1.9,0.1-3.8,0.2-5.7"/>
			<path fill="none" stroke="#000000" stroke-width="0.4" stroke-miterlimit="10" d="M40.6,116.8c0,0.1,0,0.3,0,0.5
				c0,1.5,0.1,3.8,0.7,4.4c0.5-0.3,0.6-1,0.5-1.6c0-2,0-3.9,0.2-5.9c0.1-1.1,0.2-2.2,0.4-3.4"/>
			<path fill="none" stroke="#000000" stroke-width="0.1" stroke-miterlimit="10" d="M54.7,35.3c2.3,1.9,2.9,1.6,4.2,4.3"/>
			<path fill="none" stroke="#000000" stroke-width="0.1" stroke-miterlimit="10" d="M60.3,41.4c0.4,0.8,0.8,1.6,1.2,2.4"/>
			<path fill="none" stroke="#000000" stroke-width="0.1" stroke-miterlimit="10" d="M62.3,45.6c0.3,1.1,2.3,3.7,2.6,4.8"/>
			<path fill="none" stroke="#000000" stroke-width="0.1" stroke-miterlimit="10" d="M10.4,158.7c-0.2-0.3-0.4-0.7-0.7-1
				c-0.9-1.1-2.3-1.8-3.8-1.9c0,0-0.1,0-0.1,0"/>
		</g>
	</g>
</g>
<g id="圖層_1">
	<g>
		<g>
			<path d="M73.7,85.5c-1.5,7.2-3,14.5-4.5,21.7c-1.2,5.6-4.5,10.9-5.1,16.6c-0.5,4.7,4.5,5.6,7.8,7.8c5.6,3.8,10.4,8.8,16,12.6
				c0.3,0.2,0.5-0.3,0.3-0.4c-4.7-3.2-8.9-7.1-13.3-10.6c-1.7-1.4-3.5-2.6-5.4-3.7c-1.9-1.2-4.7-1.7-5-4.6c-0.1-1.3,0.7-3,1.1-4.2
				c3.7-11.5,6.2-23.1,8.7-35C74.2,85.3,73.7,85.2,73.7,85.5L73.7,85.5z"/>
		</g>
	</g>
	<g>
		<g>
			<path d="M6.4,157.2c-1.1-4.8,5.1-12.6,7.6-16.5c2.9-4.5,5.3-8.1,6.7-13.4c1.4-5.2,3.1-10.2,6.8-14.2c2.1-2.2,5.1-3.5,7.7-4.8
				c1.3-0.7,3.7-1.6,4.3-3.1c-0.1,0.3,0.3,0.5,0.4,0.3c0.1-0.3,0.2-0.6,0.4-0.8c0.1-0.3-0.2-0.5-0.4-0.3c-4.1,3.9-9.8,5.3-13.7,9.4
				c-3,3.2-4.4,7.8-5.6,11.9c-0.9,3.2-1.6,6.3-3.3,9.2c-1.7,2.9-3.8,5.7-5.6,8.6c-2.2,3.6-6.8,9.3-5.8,13.8
				C6,157.6,6.5,157.5,6.4,157.2L6.4,157.2z"/>
		</g>
	</g>
	<g>
		<g>
			<path d="M57.9,93.9c-1,7.7-1.9,15.5-2.9,23.2c-0.6,4.5-3.1,10.8,0.6,14.4c4.5,4.3,10.9,6.9,16.6,9.4c4.8,2.1,13.9,5.3,15.6,10.7
				c0.1,0.3,0.6,0.2,0.5-0.1c-1-3.4-3.4-4.8-6.5-6.3c-5.7-2.7-11.5-5.5-17.2-8.3c-3.3-1.7-9.8-4.7-10.4-8.7
				c-0.4-3.3,0.9-7.6,1.3-10.9c1-7.7,1.9-15.5,2.9-23.2C58.5,93.6,58,93.6,57.9,93.9L57.9,93.9z"/>
		</g>
	</g>
	<g>
		<g>
			<g>
				<path d="M44.8,3.2c-4.9,1.6-5.9,6.4-6.1,11c-0.2,4.7-1.3,9.1,3.6,11c0.3,0.1,0.4-0.4,0.1-0.5c-4.5-1.7-3.3-7-3.3-10.5
					c0.1-4.4,1.1-9,5.7-10.5C45.3,3.5,45.1,3.1,44.8,3.2L44.8,3.2z"/>
			</g>
		</g>
		<g>
			<g>
				<path d="M41.9,21.4c0.4,2.2,0.7,4.4,1.1,6.7c0.3,1.5,0.7,2.8,1.8,3.9c0.2,0.2,0.6-0.1,0.4-0.4c-1.4-1.4-1.6-3.2-1.9-5
					c-0.3-1.8-0.6-3.5-0.9-5.3C42.3,21,41.9,21.1,41.9,21.4L41.9,21.4z"/>
			</g>
		</g>
		<g>
			<g>
				<path d="M44.5,31.1c-0.8,4-4.9,5.1-7.6,7.4c-1.4,1.2-1.9,3.3-2.3,5c-1,4.8,0.7,11.1,2.1,15.7c1.2,3.9,2.5,7.3,3.1,11.5
					c0.4,3.4,0.3,6.8,0.3,10.2c0,8,0.1,15.9,0.3,23.9c0,0.3,0.5,0.3,0.5,0c-0.1-7.3-0.2-14.6-0.3-21.9c0-6.4,0-12.7-1.6-18.9
					c-1.7-6.5-4-12.2-4-19c0-7.8,8.7-7.3,10-13.8C45,30.9,44.6,30.8,44.5,31.1L44.5,31.1z"/>
			</g>
		</g>
		<g>
			<g>
				<path d="M43.7,50.4c0.5,3.6,1.2,7.2,1.9,10.8c0.8,3.7,3.1,9,2.2,12.8c-0.1,0.3,0.4,0.4,0.5,0.1c0.7-3.2-0.7-6.4-1.4-9.5
					c-1.1-4.8-2-9.6-2.7-14.4C44.2,50,43.7,50.1,43.7,50.4L43.7,50.4z"/>
			</g>
		</g>
		<g>
			<g>
				<path d="M47.9,73.6c-1.5,9.7-3,19.3-4.5,29c0,0.3,0.4,0.5,0.5,0.1c1.5-9.7,3-19.3,4.5-29C48.5,73.4,48,73.3,47.9,73.6L47.9,73.6
					z"/>
			</g>
		</g>
		<g>
			<g>
				<path d="M44.8,3.9c5.1-1,9.7,0.1,10.9,5.9c1,5,1.4,12-4.4,14.2c-0.3,0.1-0.2,0.6,0.1,0.5c5.7-2.2,5.7-8.5,4.9-13.7
					c-1-6.8-5.2-8.6-11.7-7.4C44.4,3.4,44.5,3.9,44.8,3.9L44.8,3.9z"/>
			</g>
		</g>
		<g>
			<g>
				<path d="M50.9,22.7c0.8,2.4,1.6,5.2,3.9,6.4c1.8,1,3.5,1.7,5.2,3c1.6,1.3,2.5,3.1,3.8,4.6c0.2,0.2,0.6-0.1,0.4-0.4
					c-1.8-2-3-4.1-5.3-5.7c-1.2-0.8-2.5-1.4-3.8-2c-2.2-1-3-4.1-3.7-6.1C51.3,22.3,50.8,22.4,50.9,22.7L50.9,22.7z"/>
			</g>
		</g>
		<g>
			<g>
				<path d="M63.4,36.3c7.5,6.4,5.2,14.8,6.6,23.3c0.6,4.1,2.1,7.5,3.5,11.3c1.8,4.7,0.9,10.1,0.2,14.9c0,0.3,0.5,0.3,0.5,0
					c0.5-3.8,1.2-8,0.5-11.8c-1-5.6-3.8-10.5-4.4-16.3C69.3,49.5,70.8,42,63.8,36C63.5,35.8,63.2,36.1,63.4,36.3L63.4,36.3z"/>
			</g>
		</g>
		<g>
			<g>
				<path d="M67.8,71.2c6,13.6-13.9,26.7-24.1,31.2c-0.3,0.1,0,0.6,0.3,0.4c10.5-4.6,30.4-18,24.3-31.9
					C68.1,70.6,67.6,70.9,67.8,71.2L67.8,71.2z"/>
			</g>
		</g>
		<g>
			<g>
				<path d="M45.4,58.6c0.5,1,0.4,1.1,1.4,1.7c3,1.8,3.5,5.7,4.4,8.8c1.4,4.9-1.3,9.4-3.9,13.5c-0.2,0.3,0.3,0.5,0.4,0.3
					c1.6-2.4,5.3-8,4.7-11.1c-0.7-3.2-1.7-6.4-2.7-9.4c-0.6-1.9-3-2.2-3.8-4C45.7,58.1,45.3,58.4,45.4,58.6L45.4,58.6z"/>
			</g>
		</g>
		<g>
			<g>
				<path d="M0.6,154.4c3.2-2,4.2-6.6,5.3-10c2.1-6.2,3.9-12.2,6.7-18.2c1.2-2.5,3.3-4.6,4.3-7.2c1.6-4,3.2-7.1,6.1-10.2
					c5.7-6.3,11.5-12.4,17.4-18.6c0.2-0.2-0.1-0.6-0.4-0.4C34.7,95.5,29.3,101.2,24,107c-2,2.1-4,4.2-5.5,6.6
					c-1.6,2.5-2.1,5.5-3.7,8.1c-3.3,5.2-5.9,10.9-7.7,16.8c-1.5,4.6-2.3,12.8-6.8,15.5C0,154.2,0.3,154.6,0.6,154.4L0.6,154.4z"/>
			</g>
		</g>
		<g>
			<g>
				<path d="M0.4,154.2c0.3,1.2,0,2-0.4,3.1c-0.2,0.6-0.2,0.9-0.1,1.5c0.2,0.8,1.2,1.6,1.9,1.9c2.3,0.9,4.5-0.2,5.8-2.2
					c0.2-0.3-0.3-0.5-0.4-0.3c-1.4,2.1-4.1,3.1-6.2,1.3c-1.2-1-0.4-2.4-0.1-3.6c0.2-0.7,0.1-1.4-0.1-2
					C0.8,153.8,0.3,153.9,0.4,154.2L0.4,154.2z"/>
			</g>
		</g>
		<g>
			<g>
				<path d="M6.2,160.4c0.7,0.3,1.7,0.6,2.5,0.2c0.6-0.3,1-0.8,1-1.5c0-0.3-0.5-0.3-0.5,0c0.1,0.7-0.5,1.1-1.1,1.2
					c-0.6,0.1-1.2-0.2-1.7-0.4C6,159.8,5.9,160.3,6.2,160.4L6.2,160.4z"/>
			</g>
		</g>
		<g>
			<g>
				<path d="M9.2,159.8c1,0.2,2.1-0.9,1.7-1.9c-0.2-0.5-1.4-0.5-1.8-0.5c-1.4-0.2-2.7-0.3-4.1-0.3c-0.3,0-0.3,0.5,0,0.5
					c1.1,0,2.1,0.1,3.2,0.2c0.6,0.1,1.2,0.1,1.7,0.2c1.1,0.2,0.4,1.6-0.5,1.4C9,159.3,8.9,159.8,9.2,159.8L9.2,159.8z"/>
			</g>
		</g>
		<g>
			<g>
				<path d="M87.6,144c1,0.9,2,1.6,3.2,2.2c0.6,0.3,1.2,0.5,1.8,0.8c2.8,1.1,3.8,4.1,0.6,5.8c-1.1,0.6-1.8,1-2.4,2.1
					c-0.2,0.4-0.3,1.1-0.4,1.5c-0.8,3.5-3.8,2.5-5.7,1.8c-0.3-0.1-0.4,0.4-0.1,0.5c1.4,0.6,3.9,1.4,5.2-0.1c0.6-0.7,0.9-1.2,1.1-2.1
					c0.4-1.5,1.2-2.7,2.6-3.4c0.4-0.2,1.1-0.6,1.4-0.9c1.1-1.3,1.2-2.6,0.5-4.1c-0.3-0.7-1.1-1.1-1.8-1.4c-2.1-1-3.8-1.6-5.6-3.1
					C87.7,143.4,87.4,143.8,87.6,144L87.6,144z"/>
			</g>
		</g>
		<g>
			<g>
				<path d="M84.6,158.2c-0.7,0-0.4,0-1.1,0.2c-1.2,0.5-1.2,0.1-0.1-1.1c0.2,0,0.4,0,0.6,0c1.1-0.2,1.5-0.8,1.9-1.8
					c0.9-2.1,3.4-3.4,2.6-6c-0.1-0.3-0.6-0.2-0.5,0.1c0.6,2.1-1.2,3.6-2.3,5.2c-0.7,1.1-1.3,2-2.8,2.1c-0.4,0-0.8,0.3-1.1,0.6
					c-0.5,0.5-0.4,1,0,1.5c0.6,0.8,2.1-0.2,2.8-0.2C84.9,158.6,84.9,158.1,84.6,158.2L84.6,158.2z"/>
			</g>
		</g>
		<g>
			<g>
				<path d="M90,154c-0.1-0.7,0.3-1.5,1-1.8c0.3-0.1,0.2-0.6-0.1-0.5c-0.9,0.4-1.5,1.2-1.4,2.2C89.5,154.3,90,154.3,90,154L90,154z"
					/>
			</g>
		</g>
		<g>
			<g>
				<path d="M90.4,149.2c-0.9,0.1-1.8,0-2.6-0.3c-0.3-0.1-0.4,0.4-0.1,0.5c0.9,0.3,1.8,0.5,2.8,0.4
					C90.7,149.7,90.7,149.2,90.4,149.2L90.4,149.2z"/>
			</g>
		</g>
		<path fill="none" stroke="#000000" stroke-width="0.4" stroke-miterlimit="10" d="M44,102.6c1.1,2.8,1.3,5.9,0.5,8.8
			c-0.3,0.9-0.6,1.7-0.6,2.6c0,0.5,0.1,0.9,0,1.3s-0.5,0.9-0.9,0.8c-0.1,0-0.2,0-0.2-0.1c-0.1-0.1-0.1-0.2-0.1-0.2
			c-0.7-2.1,0.8-4.4,0.7-6.6"/>
		<path fill="none" stroke="#000000" stroke-width="0.4" stroke-miterlimit="10" d="M41.6,111.7"/>
		<path fill="none" stroke="#000000" stroke-width="0.4" stroke-miterlimit="10" d="M41.6,111.7"/>
		<path fill="none" stroke="#000000" stroke-width="0.4" stroke-miterlimit="10" d="M40.6,104.9c-0.3,1.8-0.5,3.7-1.1,5.5
			c-0.2,0.5-0.4,1.1-0.5,1.6c-0.3,1.2-0.3,2.4-0.2,3.6c0.1,1.5,0.4,3,0.9,4.4c0.5-1.7-0.6-3.5-0.5-5.3c0.3-3,3.8-5,3.8-8"/>
		<path fill="none" stroke="#000000" stroke-width="0.4" stroke-miterlimit="10" d="M39.8,112.8c0.3,2.4,0.4,4.9,0.2,7.3
			c0,0.3,0,0.7,0,1c0,0.1,0.1,0.2,0.2,0.2c0.2,0,0.2-0.2,0.2-0.3c0.1-3.1,0.2-6.2,0.3-9.3"/>
		<path fill="none" stroke="#000000" stroke-width="0.4" stroke-miterlimit="10" d="M40.6,116.8c0,1.3,0.1,4.2,0.7,4.9
			c0.5-0.3,0.6-1,0.5-1.6c-0.1-3.1,0.1-6.2,0.6-9.3"/>
		<g>
			<g>
				<path d="M54.5,35.4c0.7,0.6,1.5,1.1,2.3,1.7c0.9,0.7,1.4,1.6,1.8,2.6c0.1,0.1,0.3,0.1,0.3-0.1c-0.4-0.9-0.8-1.7-1.6-2.4
					c-0.8-0.8-1.8-1.3-2.7-2C54.7,35.1,54.4,35.2,54.5,35.4L54.5,35.4z"/>
			</g>
		</g>
		<g>
			<g>
				<path d="M60.1,41.4c0.4,0.8,0.8,1.6,1.2,2.4c0.1,0.1,0.3,0,0.3-0.1c-0.4-0.8-0.8-1.6-1.2-2.4C60.4,41.2,60.1,41.3,60.1,41.4
					L60.1,41.4z"/>
			</g>
		</g>
		<g>
			<g>
				<path d="M62.2,45.6c0.6,1.7,2,3.1,2.6,4.8c0,0.1,0.3,0,0.3-0.1c-0.6-1.7-2-3.1-2.6-4.8C62.4,45.5,62.1,45.6,62.2,45.6L62.2,45.6
					z"/>
			</g>
		</g>
		<g>
			<g>
				<path d="M10.5,158.6c-0.9-1.8-2.7-2.8-4.7-2.9c-0.1,0-0.3,0.2-0.1,0.2c1.9,0.1,3.6,1.2,4.5,2.9
					C10.3,158.9,10.6,158.8,10.5,158.6L10.5,158.6z"/>
			</g>
		</g>
	</g>
</g>
</svg>
