<?xml version="1.0" encoding="utf-8"?>
<!-- Generator: Adobe Illustrator 18.0.0, SVG Export Plug-In . SVG Version: 6.00 Build 0)  -->
<!DOCTYPE svg PUBLIC "-//W3C//DTD SVG 1.1//EN" "http://www.w3.org/Graphics/SVG/1.1/DTD/svg11.dtd">
<svg version="1.1" id="圖層_1" xmlns="http://www.w3.org/2000/svg" xmlns:xlink="http://www.w3.org/1999/xlink" x="0px" y="0px"
	 viewBox="979 743.1 403.3 622.8" enable-background="new 979 743.1 403.3 622.8" xml:space="preserve">
<g id="底層">
</g>
<g id="圖層_2">
	<path fill="#E4C76B" d="M595.1,354.3c-50.5,18.1-154.9,45.6-207.8,55.4C245.1,436.1-0.5,454.1-0.5,454.1l-1.3,37.6l597.1-2.2"/>
</g>
<g id="圖層_4" display="none">
</g>
<g>
	<g id="XMLID_1_">
		<g>
			<path fill="#DCDCDD" d="M259,427.9l0.9,0.4c-0.2,0.6-0.2,1.4-0.5,2c-0.3,0.5-0.9,0.9-1.6,0.9s-1.3-0.1-1.9-0.3
				c-0.3-0.1-0.6,0.3-0.9,0.3c-0.3,0.1-0.7,0.1-0.9-0.2c-0.2-0.4,0.2-0.8,0.6-0.9c0.4-0.1,0.9-0.1,1.2-0.4c0.2-0.2,0.3-0.6,0.4-0.9
				c0.2-0.7,0.7-1.2,1.1-1.8l1.5,0C259,427.3,259,427.6,259,427.9z"/>
			<path fill="#DCDCDD" d="M228.4,379.5c-0.1,1.8-0.3,3.7-0.4,5.5l0.4,0c1.1-2,1.9-4.2,2.3-6.5c0-0.2,0.1-0.4,0-0.7
				c0-0.2-0.1-0.4-0.2-0.6c-0.6-1.5-1.2-3-1.8-4.6c-0.2-0.4-0.4-0.9-0.7-1.2c-0.7-0.6-2-0.8-2.2-1.7l-0.2,0.1
				c0.7,2.4,1.4,4.8,2.3,7.2C228.4,377.8,228.7,378.7,228.4,379.5z M224.9,403c0.3-1.2,0.3-2.3,0.4-3.5l0-0.1c0-0.1,0-0.1,0-0.2
				c-0.3-3.1-0.6-6.1-0.9-9.2c-0.2-1.9-0.4-3.8-0.5-5.7c-0.4-4.6-0.7-8.5-2.9-12.6c-1-1.9-1.5-4.1-2-6.2c-0.6-2.6-1.2-5.7,0.5-7.7
				c0.8-0.9,1.8-1.5,2.8-2.2c0.9-0.7,1.7-1.7,1.7-2.7c0,0,0,0,0,0c-0.7-0.6-1-1.6-1.2-2.5c-0.1-0.5-0.3-1-0.4-1.6l-0.2,0
				c-0.8-0.2-1.8-0.5-2.2-1.3c-0.2-0.4-0.2-0.8-0.3-1.2c-0.1-1.1-0.2-2.1-0.2-3.2c-0.1-1.6-0.2-3.2,0.2-4.7c0.4-1.5,1.4-2.9,2.8-3.4
				l0,0.1c1-0.3,2.1-0.6,3.2-0.5c1.1,0,2.2,0.4,2.9,1.1c0.9,0.9,1.2,2.1,1.5,3.3c0.4,1.6,0.7,3.3,0.5,4.9c-0.2,1.6-1.1,3.1-2.6,3.8
				c0.3,0.6,0.6,1.1,0.9,1.7c0.2,0.3,0.3,0.5,0.6,0.7c0.4,0.3,0.9,0.5,1.4,0.6c1.6,0.5,3.1,1.3,4.2,2.6c0.4,0.5,0.8,1,1.3,1.5
				c1.7,1.1,3.1,2.9,3.8,4.8c0.6,1.6,0.7,3.4,0.9,5.1c0.3,3,0.8,6.1,2.1,8.8c0.4,0.9,1,1.8,1.4,2.7c1.2,2.9,1.1,6.1,1,9.2l-0.1,0
				c-0.5,4.3-1,8.6-1.6,12.9c-0.2,1.9-0.5,3.8-1,5.6c-0.3,1.1-0.8,2.3-1,3.4c-0.3,2-1.6,4.5,1,5.4c4.9,1.7,8.7,5.4,13.1,8.1
				c0.4,0.3,0.9,0.5,1.3,0.8c0.9,0.7,2,1.2,3.2,1.5c0.3,0.1,0.7,0.2,1,0.3c1.1,0.5,1.4,2.1,0.6,3c-0.6,0.6-1.6,0.9-2,1.6
				c-0.1,0.1-0.1,0.2-0.1,0.3l-0.9-0.4c-0.1-0.3,0-0.6,0.1-0.8l-1.5,0c0.1-0.2,0.2-0.5,0.3-0.7l-0.1,0c-1.1-3.4-4.9-3.2-8.5-5.3
				c-4.5-1.5-9.2-3-13.1-5.7c-0.5-0.3-1-0.7-1.2-1.3c-0.2-0.5-0.2-1-0.2-1.5c0.3-7,0.5-14,0.8-21.1l-0.1-0.1
				c-2.4,2.5-5.3,4.7-8.4,6.4l0,0c0.9,1.7,1.1,3.7,0.8,5.5c-0.1,0.6-0.3,1.1-0.2,1.7c0,0.3,0.1,0.6,0,0.9c0,0.3-0.2,0.6-0.5,0.6
				c-0.1,0-0.1,0-0.2,0c-0.1,0-0.1-0.1-0.1-0.2c-0.1-0.3-0.2-0.6-0.2-1l-0.2,0c0,1.3,0.1,2.5,0.2,3.8c0,0.4,0.1,0.8-0.3,1.1
				c-0.4-0.4-0.6-1.8-0.7-2.8c0,0.8,0.1,1.6,0.1,2.3c0,0.1,0,0.2-0.1,0.2c-0.1,0-0.1-0.1-0.1-0.1c-0.1-0.2-0.1-0.4-0.1-0.6
				c0-1.5-0.2-3.1-0.5-4.5c-0.2,0.4-0.3,0.8-0.3,1.2c0,1.1,0.8,2.2,0.6,3.3c-0.4-0.9-0.7-1.8-0.8-2.8c-0.1-0.8-0.2-1.5,0-2.3
				C224.7,403.7,224.8,403.3,224.9,403z"/>
			<path fill="#DCDCDD" d="M208.6,434.6c-0.8-0.1-1.5-0.1-2.3-0.1l0-0.1c-0.2-0.3-0.3-0.6-0.3-0.9
				C207,433.5,207.9,433.9,208.6,434.6z"/>
			<path fill="#DCDCDD" d="M208.4,435.8c-0.1,0.3-0.3,0.6-0.7,0.6c-0.4,0.1-0.9,0-1.3-0.1l-0.1-0.1c-0.3,0.3-0.7,0.5-1.1,0.6
				c-0.8,0.2-1.8,0-2.4-0.6c-0.3-0.3-0.5-0.7-0.4-1.1c0-0.2,0.1-0.4,0.2-0.6c0.2-0.6,0.2-1.2,0-1.8l0,0c0.7-0.3,1-1.1,1.3-1.9
				c0.8-2.1,1.7-6.1,1.7-6.1c0.5-4.3,2-7.7,3.3-11.4c0.6-1.1,1.5-2.5,2-3.7c0.4-1.1,0.5-2.3,1-3.4c0.4-0.9,1-1.7,1.6-2.5
				c3.5-4.6,7.1-9.2,10.8-13.7l0.1,0c0.3,3.1,0.6,6.1,0.9,9.2l-0.3,0c-1.8,2.3-4.9,3.3-7,5.3c-2.7,2.6-3.6,6.4-4.2,10.1
				c-0.3,1.5-0.5,2.9-1.1,4.3c-0.4,0.9-0.8,1.7-1.3,2.5c-1.9,3.4-3.6,6.9-5,10.5c-0.2,0.5-0.4,1.1-0.4,1.7c0,0.3,0.1,0.6,0.3,0.9
				l0,0.1c0.8,0,1.5,0,2.3,0.1c0.1,0,0.3,0,0.4,0c0.1,0,0.2,0,0.2,0.1c0,0.1,0.1,0.1,0.1,0.2C209.2,435.4,208.9,435.9,208.4,435.8z"
				/>
		</g>
		<g>
			<path fill="none" stroke="#231815" stroke-width="0.1" stroke-miterlimit="10" d="M245.4,385.4c-0.5,4.3-1,8.6-1.6,12.9
				c-0.2,1.9-0.5,3.8-1,5.6c-0.3,1.1-0.8,2.3-1,3.4c-0.3,2-1.6,4.5,1,5.4c4.9,1.7,8.7,5.4,13.1,8.1c0.4,0.3,0.9,0.5,1.3,0.8
				c0,0,0,0,0,0"/>
			<path fill="none" stroke="#231815" stroke-width="0.1" stroke-miterlimit="10" d="M206.3,434.5c-0.2-0.3-0.3-0.6-0.3-0.9
				c0-0.6,0.2-1.2,0.4-1.7c1.4-3.6,3-7.1,5-10.5c0.5-0.8,1-1.6,1.3-2.5c0.6-1.4,0.8-2.8,1.1-4.3c0.6-3.7,1.5-7.5,4.2-10.1
				c2.1-2,5.2-3,7-5.3c-0.1,0.2-0.1,0.4-0.2,0.5"/>
			<path fill="none" stroke="#231815" stroke-width="0.1" stroke-miterlimit="10" d="M235.8,391.5c-0.3,7-0.5,14-0.8,21.1
				c0,0.5,0,1,0.2,1.5c0.2,0.5,0.7,0.9,1.2,1.3c3.9,2.8,8.5,4.2,13.1,5.7c3.6,2.1,7.4,1.9,8.5,5.3"/>
			<path fill="none" stroke="#231815" stroke-width="0.1" stroke-miterlimit="10" d="M222.6,334.9c0,0-0.1,0-0.1,0
				c-1.4,0.5-2.4,1.9-2.8,3.4c-0.4,1.5-0.3,3.1-0.2,4.7c0.1,1.1,0.2,2.1,0.2,3.2c0,0.4,0.1,0.8,0.3,1.2c0.4,0.8,1.3,1.1,2.2,1.3"/>
			<path fill="none" stroke="#231815" stroke-width="0.1" stroke-miterlimit="10" d="M224,352.7c0.1,0,0.1,0.1,0.2,0.1"/>
			<path fill="none" stroke="#231815" stroke-width="0.1" stroke-miterlimit="10" d="M221.8,346.4c0.2,0.7,0.4,1.5,0.6,2.2
				c0.1,0.5,0.3,1.1,0.4,1.6c0.2,0.9,0.5,1.9,1.2,2.5"/>
			<path fill="none" stroke="#231815" stroke-width="0.1" stroke-miterlimit="10" d="M223.9,352.5c0,0.1,0,0.1,0,0.2c0,0,0,0,0,0
				c0,1.1-0.8,2.1-1.7,2.7c-0.9,0.7-2,1.3-2.8,2.2c-1.7,2.1-1.2,5.1-0.5,7.7c0.5,2.1,1,4.3,2,6.2c2.2,4.2,2.5,8,2.9,12.6
				c0.2,1.9,0.3,3.8,0.5,5.7c0.3,3.1,0.6,6.1,0.9,9.2c0,0.1,0,0.1,0,0.2"/>
			<path fill="none" stroke="#231815" stroke-width="0.1" stroke-miterlimit="10" d="M224.5,364.7c0.4,1.7,0.8,3.4,1.3,5.1
				c0.7,2.4,1.4,4.8,2.3,7.2c0.3,0.8,0.6,1.7,0.3,2.4c0,0,0,0.1,0,0.1"/>
			<path fill="none" stroke="#231815" stroke-width="0.1" stroke-miterlimit="10" d="M228.4,379.3c0,0.1,0,0.1,0,0.2
				c-0.1,1.8-0.3,3.7-0.4,5.5c-0.3,4.3-0.6,8.6-0.9,12.9"/>
			<path fill="none" stroke="#231815" stroke-width="0.1" stroke-miterlimit="10" d="M222.5,335.1c1-0.3,2.1-0.6,3.2-0.5
				c1.1,0,2.2,0.4,2.9,1.1c0.9,0.9,1.2,2.1,1.5,3.3c0.4,1.6,0.7,3.3,0.5,4.9c-0.2,1.6-1.1,3.1-2.6,3.8c-0.1,0-0.1,0-0.2,0.1"/>
			<path fill="none" stroke="#231815" stroke-width="0.1" stroke-miterlimit="10" d="M227.5,346.8c0.1,0.3,0.3,0.6,0.4,0.9
				c0.3,0.6,0.6,1.1,0.9,1.7c0.2,0.3,0.3,0.5,0.6,0.7c0.4,0.3,0.9,0.5,1.4,0.6c1.6,0.5,3.1,1.3,4.2,2.6c0.4,0.5,0.8,1,1.3,1.5
				c0.1,0,0.1,0.1,0.2,0.1"/>
			<path fill="none" stroke="#231815" stroke-width="0.1" stroke-miterlimit="10" d="M236.1,354.7c0,0,0.1,0.1,0.1,0.1
				c1.7,1.1,3.1,2.9,3.8,4.8c0.6,1.6,0.7,3.4,0.9,5.1c0.3,3,0.8,6.1,2.1,8.8c0.4,0.9,1,1.8,1.4,2.7c1.2,2.9,1.1,6.1,1,9.2
				c0,0.1,0,0.2,0,0.3"/>
			<path fill="none" stroke="#231815" stroke-width="0.1" stroke-miterlimit="10" d="M240.8,376.5c1,1.6,1.2,3.6,0.8,5.5
				c-0.4,1.8-1.4,3.5-2.4,5.1c-1,1.5-2.2,3-3.5,4.3c-2.4,2.5-5.3,4.7-8.4,6.4c0,0-0.1,0-0.1,0.1"/>
			<path fill="none" stroke="#231815" stroke-width="0.1" stroke-miterlimit="10" d="M226,369.8c0.2,0.9,1.5,1,2.2,1.7
				c0.3,0.3,0.5,0.8,0.7,1.2c0.6,1.5,1.2,3,1.8,4.6c0.1,0.2,0.2,0.4,0.2,0.6c0,0.2,0,0.4,0,0.7c-0.4,2.3-1.2,4.5-2.3,6.5"/>
			<path fill="none" stroke="#231815" stroke-width="0.1" stroke-miterlimit="10" d="M202.5,432.8c0,0,0.1,0,0.1-0.1
				c0.7-0.3,1-1.1,1.3-1.9c0.8-2.1,1.7-6.1,1.7-6.1c0.5-4.3,2-7.7,3.3-11.4c0.6-1.1,1.5-2.5,2-3.7c0.4-1.1,0.5-2.3,1-3.4
				c0.4-0.9,1-1.7,1.6-2.5c3.5-4.6,7.1-9.2,10.8-13.7"/>
			<path fill="none" stroke="#231815" stroke-width="0.1" stroke-miterlimit="10" d="M202.6,432.8c0.2,0.6,0.3,1.2,0,1.8
				c-0.1,0.2-0.2,0.4-0.2,0.6c-0.1,0.4,0.2,0.8,0.4,1.1c0.6,0.6,1.6,0.8,2.4,0.6c0.4-0.1,0.8-0.3,1.1-0.6c0.3-0.3,0.6-0.6,0.8-1"/>
			<path fill="none" stroke="#231815" stroke-width="0.1" stroke-miterlimit="10" d="M206.5,436.3c0.4,0.1,0.9,0.2,1.3,0.1
				c0.3-0.1,0.6-0.3,0.7-0.6c0-0.1,0-0.2,0-0.3"/>
			<path fill="none" stroke="#231815" stroke-width="0.1" stroke-miterlimit="10" d="M208.4,435.8L208.4,435.8
				c0.5,0.1,0.8-0.4,0.8-0.9c0-0.1,0-0.2-0.1-0.2c-0.1-0.1-0.1-0.1-0.2-0.1c-0.1,0-0.3,0-0.4,0c-0.8-0.1-1.5-0.1-2.3-0.1
				c-0.3,0-0.5,0-0.8,0"/>
			<path fill="none" stroke="#231815" stroke-width="0.1" stroke-miterlimit="10" d="M257.3,421.5
				C257.3,421.6,257.3,421.6,257.3,421.5c1,0.8,2.1,1.3,3.3,1.6c0.3,0.1,0.7,0.2,1,0.3c1.1,0.5,1.4,2.1,0.6,3
				c-0.6,0.6-1.6,0.9-2,1.6c-0.1,0.1-0.1,0.2-0.1,0.3c-0.2,0.6-0.2,1.4-0.5,2c-0.3,0.5-0.9,0.9-1.6,0.9s-1.3-0.1-1.9-0.3"/>
			<path fill="none" stroke="#231815" stroke-width="0.1" stroke-miterlimit="10" d="M256,431c-0.3-0.1-0.6,0.3-0.9,0.3
				c-0.3,0.1-0.7,0.1-0.9-0.2c-0.2-0.4,0.2-0.8,0.6-0.9c0.4-0.1,0.9-0.1,1.2-0.4c0.2-0.2,0.3-0.6,0.4-0.9c0.2-0.7,0.7-1.2,1.1-1.8
				c0.1-0.2,0.2-0.5,0.3-0.7c0.1-0.4,0.1-0.9-0.1-1.3"/>
			<path fill="none" stroke="#231815" stroke-width="0.1" stroke-miterlimit="10" d="M259,427.9c-0.1-0.3,0-0.6,0.1-0.8
				c0.1-0.2,0.3-0.4,0.5-0.5"/>
			<path fill="none" stroke="#231815" stroke-width="0.1" stroke-miterlimit="10" d="M259.2,425c-0.6,0.1-1.2,0.1-1.7-0.1"/>
			<path fill="none" stroke="#231815" stroke-width="0.1" stroke-miterlimit="10" d="M227.3,397.8c0.9,1.7,1.1,3.7,0.8,5.5
				c-0.1,0.6-0.3,1.1-0.2,1.7c0,0.3,0.1,0.6,0,0.9c0,0.3-0.2,0.6-0.5,0.6c-0.1,0-0.1,0-0.2,0c-0.1,0-0.1-0.1-0.1-0.2
				c-0.1-0.3-0.2-0.6-0.2-1c0-1.1,0.4-2.2,0.3-3.3"/>
			<path fill="none" stroke="#231815" stroke-width="0.1" stroke-miterlimit="10" d="M225.3,399.5c-0.1,1.2-0.1,2.4-0.4,3.5
				c-0.1,0.4-0.2,0.7-0.3,1.1c-0.1,0.8-0.1,1.5,0,2.3c0.2,0.9,0.4,1.9,0.8,2.8c0.2-1.1-0.6-2.2-0.6-3.3c0-0.4,0.1-0.8,0.3-1.2
				c0.6-1.4,1.8-2.6,1.7-4"/>
			<path fill="none" stroke="#231815" stroke-width="0.1" stroke-miterlimit="10" d="M225.2,404.5c0,0,0,0.1,0,0.1
				c0.3,1.5,0.5,3,0.5,4.5c0,0.2,0,0.4,0.1,0.6c0,0.1,0,0.1,0.1,0.1c0.1,0,0.1-0.1,0.1-0.2c0-0.8-0.1-1.6-0.1-2.3
				c-0.1-1.2-0.1-2.4-0.2-3.6"/>
			<path fill="none" stroke="#231815" stroke-width="0.1" stroke-miterlimit="10" d="M225.9,407c0,0.1,0,0.2,0,0.3
				c0.1,0.9,0.3,2.4,0.7,2.8c0.3-0.2,0.3-0.7,0.3-1.1c-0.1-1.2-0.2-2.5-0.2-3.8c0-0.7,0-1.4,0-2.2"/>
			<path fill="none" stroke="#231815" stroke-width="0.1" stroke-miterlimit="10" d="M230.4,354.6c1.6,1.1,1.9,0.9,2.9,2.5"/>
			<path fill="none" stroke="#231815" stroke-width="0.1" stroke-miterlimit="10" d="M234.3,358.1c0.3,0.5,0.6,1,0.9,1.5"/>
			<path fill="none" stroke="#231815" stroke-width="0.1" stroke-miterlimit="10" d="M235.9,360.7c0.3,0.7,1.6,2.2,1.9,2.9"/>
			<path fill="none" stroke="#231815" stroke-width="0.1" stroke-miterlimit="10" d="M209,435.1c-0.1-0.2-0.3-0.4-0.5-0.6
				c-0.7-0.7-1.6-1-2.5-1c0,0-0.1,0-0.1,0"/>
		</g>
	</g>
</g>
<g>
	<g>
		<path fill="#231815" d="M245.1,385.4c-0.7,5.5-1.2,11.1-2.1,16.6c-0.5,3.1-2.3,6.2-1.9,9.4c0.2,1.6,3.7,2.5,4.4,2.8
			c4.2,2,7.7,5.3,11.7,7.6c0.3,0.2,0.5-0.3,0.3-0.4c-2.7-1.6-5.2-3.4-7.8-5.2c-2.9-2-8.8-3.6-7.8-7.8c1.7-7.7,2.8-15.2,3.7-23
			C245.6,385.1,245.1,385.1,245.1,385.4L245.1,385.4z"/>
	</g>
</g>
<g>
	<g>
		<path fill="#231815" d="M206.6,434.4c-0.7-3.7,2.6-8.3,4.2-11.4c1.2-2.3,2.3-4.2,2.9-6.8c0.7-3.3,1.1-6.3,2.8-9.3
			c1.6-3.1,7-4,8.1-7.1c-0.1,0.3,0.4,0.4,0.5,0.1c0.1-0.2,0.1-0.4,0.2-0.5c0.1-0.2-0.2-0.4-0.4-0.2c-2.3,2.4-6,3.6-8,6.4
			c-1.9,2.8-2.7,5.8-3.3,9.1c-0.9,4.7-3.4,8.4-5.4,12.6c-1.1,2.3-2.6,4.7-2.1,7.3C206.1,434.8,206.6,434.7,206.6,434.4L206.6,434.4z
			"/>
	</g>
</g>
<g>
	<g>
		<path fill="#231815" d="M235.6,391.5c-0.2,5.1-0.4,10.2-0.6,15.3c-0.1,1.9-1.3,6.6,0.5,8.1c2.3,1.9,5.1,3.1,7.8,4.2
			c4,1.6,12.4,3.1,14.3,7.3c0.1,0.3,0.6,0,0.4-0.3c-2.2-4.7-10.2-5.9-14.6-7.5c-2-0.7-3.8-1.7-5.7-2.7c-3.6-2.1-2.5-5.9-2.3-9.2
			c0.2-5.1,0.4-10.2,0.6-15.3C236.1,391.2,235.6,391.2,235.6,391.5L235.6,391.5z"/>
	</g>
</g>
<g>
	<g>
		<g>
			<path fill="#231815" d="M222.4,334.7c-3,1.3-3.4,4.4-3.3,7.4c0.1,3.1-0.4,5.9,2.9,6.9c0.3,0.1,0.4-0.4,0.1-0.5
				c-2.8-0.8-2.4-4.1-2.6-6.4c-0.2-2.7,0.2-5.7,3-6.9C223,335,222.7,334.6,222.4,334.7L222.4,334.7z"/>
		</g>
	</g>
	<g>
		<g>
			<path fill="#231815" d="M221.5,346.5c0.3,1.4,0.7,2.8,1,4.2c0.2,0.9,0.6,1.8,1.4,2.4c0.2,0.2,0.6-0.1,0.4-0.4
				c-0.9-0.8-1.2-1.9-1.4-3c-0.3-1.1-0.6-2.2-0.8-3.3C221.9,346.1,221.5,346.2,221.5,346.5L221.5,346.5z"/>
		</g>
	</g>
	<g>
		<g>
			<path fill="#231815" d="M223.7,352.5c-0.5,2.9-4.6,4.5-5.5,7.5c-0.8,2.6,0.6,6.3,1.3,8.7c1.3,4.9,3.4,8.7,3.9,13.9
				c0.6,5.6,1,11.2,1.6,16.8c0,0.3,0.5,0.3,0.5,0c-0.8-8.1-0.7-16.8-3-24.7c-1.3-4.6-3.6-8.4-3.9-13.3c-0.3-4.2,5-5.2,5.6-8.8
				C224.2,352.3,223.8,352.1,223.7,352.5L223.7,352.5z"/>
		</g>
	</g>
	<g>
		<g>
			<path fill="#231815" d="M224.3,364.8c0.6,2.4,1.2,4.8,1.9,7.2c0.7,2.3,2.3,5.1,2,7.5c0,0.3,0.4,0.5,0.5,0.1
				c0.3-2-0.7-3.8-1.3-5.7c-1-3-1.8-6.1-2.6-9.3C224.7,364.3,224.2,364.5,224.3,364.8L224.3,364.8z"/>
		</g>
	</g>
	<g>
		<g>
			<path fill="#231815" d="M228.2,379.3c-0.4,6.2-0.9,12.4-1.3,18.6c0,0.3,0.5,0.3,0.5,0c0.4-6.2,0.9-12.4,1.3-18.6
				C228.7,378.9,228.2,378.9,228.2,379.3L228.2,379.3z"/>
		</g>
	</g>
	<g>
		<g>
			<path fill="#231815" d="M222.5,335.3c1.1-0.3,2-0.5,3.1-0.5c2.8-0.1,3.7,2.2,4.2,4.3c0.7,3,1.2,6.8-2.2,8.5
				c-0.3,0.1,0,0.6,0.3,0.4c3.8-1.9,3.1-6.3,2.2-9.7c-1-3.9-4.3-4.4-7.7-3.4C222.1,334.9,222.2,335.4,222.5,335.3L222.5,335.3z"/>
		</g>
	</g>
	<g>
		<g>
			<path fill="#231815" d="M227.3,346.9c0.6,1.4,1.3,3.3,2.9,3.9c1.2,0.4,2.3,0.9,3.4,1.6c1.1,0.7,1.7,1.8,2.6,2.7
				c0.2,0.2,0.6-0.1,0.4-0.4c-1.4-1.3-2.4-2.7-4.2-3.6c-0.8-0.4-1.7-0.6-2.5-1c-1.1-0.5-1.8-2.5-2.2-3.5
				C227.6,346.4,227.2,346.6,227.3,346.9L227.3,346.9z"/>
		</g>
	</g>
	<g>
		<g>
			<path fill="#231815" d="M236,354.9c5,3.7,4.3,9.7,5.6,15.2c0.4,1.7,1.2,3.3,2,4.8c1.8,3.4,1.8,7,1.6,10.7c0,0.3,0.5,0.3,0.5,0
				c0.1-2.8,0.1-5.4-0.4-8.1c-0.7-3.3-2.8-6.1-3.5-9.4c-1.2-5.5-0.5-10.1-5.4-13.8C236,354.3,235.8,354.7,236,354.9L236,354.9z"/>
		</g>
	</g>
	<g>
		<g>
			<path fill="#231815" d="M240.6,376.7c4.4,8.3-7.3,17.5-13.5,21c-0.3,0.2,0,0.6,0.3,0.4c6.6-3.6,18.2-13,13.7-21.6
				C240.9,376.1,240.5,376.4,240.6,376.7L240.6,376.7z"/>
		</g>
	</g>
	<g>
		<g>
			<path fill="#231815" d="M225.8,369.9c0.4,0.8,0.3,0.5,1,1c1.5,1,1.9,1.9,2.6,3.6c0.6,1.7,1.4,2.9,1,4.8c-0.4,1.9-1.2,3.7-2.1,5.4
				c-0.2,0.3,0.3,0.5,0.4,0.3c1.2-2.2,3-5.4,2.2-7.9c-0.5-1.5-1.2-3.1-1.8-4.6c-0.7-1.6-2.1-1.5-2.9-2.9
				C226,369.4,225.6,369.6,225.8,369.9L225.8,369.9z"/>
		</g>
	</g>
	<g>
		<g>
			<path fill="#231815" d="M202.7,433c3.8-3.4,3.8-11.9,5.4-16.4c1.3-3.6,3.4-9.7,5.7-12.7c3.4-4.7,7.1-9.1,10.7-13.6
				c0.2-0.2-0.2-0.6-0.4-0.4c-3.2,4-6.4,8.1-9.6,12.2c-2.6,3.3-3.1,6.4-5.1,10c-1.8,3.3-2.9,7.2-3.7,10.9c-0.7,3.1-0.8,7.5-3.3,9.7
				C202.1,432.9,202.4,433.2,202.7,433L202.7,433z"/>
		</g>
	</g>
	<g>
		<g>
			<path fill="#231815" d="M202.4,432.9c0.2,0.6,0.2,1.1,0,1.7c-0.1,0.3-0.3,0.6-0.2,1c0.2,0.7,0.7,1.2,1.3,1.4
				c1.6,0.6,3.1-0.2,3.9-1.6c0.2-0.3-0.3-0.5-0.4-0.3c-0.7,1.3-2.1,2-3.5,1.3c-1-0.5-0.6-1.5-0.4-2.3c0.1-0.5,0-0.9-0.2-1.3
				C202.8,432.4,202.3,432.6,202.4,432.9L202.4,432.9z"/>
		</g>
	</g>
	<g>
		<g>
			<path fill="#231815" d="M206.4,436.5c0.6,0.2,1.2,0.3,1.7,0c0.4-0.2,0.6-0.7,0.5-1.1c0-0.3-0.5-0.2-0.5,0.1
				c0.1,0.9-1.2,0.7-1.6,0.5C206.3,435.9,206.1,436.4,206.4,436.5L206.4,436.5z"/>
		</g>
	</g>
	<g>
		<g>
			<path fill="#231815" d="M208.3,436c0.7,0.1,1.4-0.7,1.1-1.4c-0.2-0.4-0.7-0.3-1.1-0.3c-1-0.1-1.9-0.1-2.9,0c-0.3,0-0.3,0.5,0,0.5
				c0.7,0,1.3,0,2,0c0.3,0,0.6,0,0.9,0c0.2,0,0.4,0,0.6,0.1c0,0.3-0.2,0.6-0.5,0.7C208.2,435.5,208,436,208.3,436L208.3,436z"/>
		</g>
	</g>
	<g>
		<g>
			<path fill="#231815" d="M257.2,421.8c0.7,0.5,1.4,0.9,2.2,1.2c0.6,0.2,1.1,0.4,1.7,0.5c2.8,0.7,0.8,3-0.3,3.6
				c-0.3,0.2-0.7,0.5-0.9,0.8c-0.2,0.6-0.3,1.1-0.4,1.8c-0.3,1.6-2.2,1.3-3.3,1c-0.3-0.1-0.4,0.4-0.1,0.5c1.4,0.4,2.7,0.5,3.7-0.7
				c0.4-0.5,0.4-1.3,0.5-1.9c0.2-1.2,1.6-1.2,2.2-2.1c0.5-0.8,0.7-2,0-2.8c-0.4-0.4-0.7-0.6-1.3-0.8c-1.3-0.5-2.5-0.8-3.7-1.7
				C257.1,421.1,256.9,421.6,257.2,421.8L257.2,421.8z"/>
		</g>
	</g>
	<g>
		<g>
			<path fill="#231815" d="M256,430.7c-0.1,0-0.3,0-0.4,0.1c-0.3,0.3-0.5,0.2-0.6-0.4c0.2,0,0.4-0.1,0.7-0.1c0.4-0.1,0.8-0.3,1-0.7
				c0.6-1.4,2.2-3,1.5-4.6c-0.1-0.3-0.6-0.2-0.5,0.1c0.5,1.4-0.8,2.5-1.3,3.7c-0.2,0.6-0.5,1-1.2,1.1c-0.5,0.1-0.7,0.2-1,0.5
				c-0.4,0.3-0.2,0.8,0.1,1.1c0.5,0.4,1.3-0.2,1.7-0.3C256.4,431.2,256.4,430.7,256,430.7L256,430.7z"/>
		</g>
	</g>
	<g>
		<g>
			<path fill="#231815" d="M259.3,427.8c-0.1-0.4,0.2-0.8,0.5-1c0.3-0.2,0-0.6-0.3-0.4c-0.6,0.3-0.9,0.9-0.8,1.6
				C258.9,428.3,259.3,428.2,259.3,427.8L259.3,427.8z"/>
		</g>
	</g>
	<g>
		<g>
			<path fill="#231815" d="M259.2,424.8c-0.5,0.1-1.1,0.1-1.6-0.1c-0.3-0.1-0.4,0.4-0.1,0.5c0.6,0.2,1.2,0.2,1.9,0.1
				C259.6,425.2,259.5,424.7,259.2,424.8L259.2,424.8z"/>
		</g>
	</g>
	<path fill="none" stroke="#231815" stroke-width="0.4" stroke-miterlimit="10" d="M227.3,397.8c0.9,1.7,1.1,3.7,0.8,5.5
		c-0.1,0.6-0.3,1.1-0.2,1.7c0,0.3,0.1,0.6,0,0.9s-0.2,0.6-0.5,0.6c-0.1,0-0.1,0-0.2,0c-0.1,0-0.1-0.1-0.1-0.2
		c-0.6-1.3,0.3-2.8,0.1-4.3"/>
	<path fill="none" stroke="#231815" stroke-width="0.4" stroke-miterlimit="10" d="M226.3,403.7"/>
	<path fill="none" stroke="#231815" stroke-width="0.4" stroke-miterlimit="10" d="M226.3,403.7"/>
	<path fill="none" stroke="#231815" stroke-width="0.4" stroke-miterlimit="10" d="M225.3,399.5c-0.1,1.2-0.1,2.4-0.4,3.5
		c-0.1,0.4-0.2,0.7-0.3,1.1c-0.1,0.8-0.1,1.5,0,2.3c0.2,0.9,0.4,1.9,0.8,2.8c0.2-1.1-0.6-2.2-0.6-3.3c0-1.9,2.2-3.4,2-5.3"/>
	<path fill="none" stroke="#231815" stroke-width="0.4" stroke-miterlimit="10" d="M225.2,404.5c0.3,1.5,0.5,3.1,0.5,4.6
		c0,0.2,0,0.4,0.1,0.6c0,0.1,0.1,0.1,0.1,0.1c0.1,0,0.1-0.1,0.1-0.2c-0.1-2-0.2-4-0.3-5.9"/>
	<path fill="none" stroke="#231815" stroke-width="0.4" stroke-miterlimit="10" d="M225.9,407c0.1,0.8,0.3,2.7,0.7,3.1
		c0.3-0.2,0.3-0.7,0.3-1.1c-0.2-2-0.3-3.9-0.2-5.9"/>
	<g>
		<g>
			<path fill="#231815" d="M230.3,354.7c0.5,0.4,1.1,0.6,1.6,1c0.6,0.4,0.9,0.9,1.3,1.5c0.1,0.1,0.3,0,0.3-0.1
				c-0.3-0.5-0.6-1.1-1.1-1.4c-0.5-0.4-1.2-0.7-1.8-1.1C230.4,354.4,230.2,354.6,230.3,354.7L230.3,354.7z"/>
		</g>
	</g>
	<g>
		<g>
			<path fill="#231815" d="M234.2,358.2c0.3,0.5,0.6,1,0.9,1.5c0.1,0.1,0.3,0,0.3-0.1c-0.3-0.5-0.6-1-0.9-1.5
				C234.4,358,234.1,358.1,234.2,358.2L234.2,358.2z"/>
		</g>
	</g>
	<g>
		<g>
			<path fill="#231815" d="M235.7,360.8c0.5,1.1,1.4,1.8,1.9,2.9c0,0.1,0.3,0,0.3-0.1c-0.5-1.1-1.4-1.8-1.9-2.9
				C236,360.6,235.7,360.7,235.7,360.8L235.7,360.8z"/>
		</g>
	</g>
	<g>
		<g>
			<path fill="#231815" d="M209.2,435.1c-0.7-1.1-1.9-1.7-3.2-1.6c-0.2,0-0.2,0.2,0,0.2c1.2,0,2.3,0.5,3,1.6
				C209,435.3,209.2,435.2,209.2,435.1L209.2,435.1z"/>
		</g>
	</g>
</g>
<rect x="742.6" y="1048.1" fill="#DCDCDD" stroke="#231815" stroke-width="0.1" stroke-miterlimit="10" width="72" height="72"/>
<g id="XMLID_2_">
	<g>
		<path fill="#231815" d="M1382.3,1301.9l-23.1,5.5c0.1-2.4-0.1-4.8-1-6.8l-29.6,12.1c0.7,0.3,1.4,0.8,2.1,1.4l-146.9,34.9
			c0.1-4.8,0.1-10.9-0.3-12.1l-42.2-8.1c-0.7,2.6-1.4,9-1.8,14.1c-24.3-10.3-61.7-25.5-90.4-37.1c1.3-1.6,2.4-3.2,3.2-4.6
			l-33.8-13.7c0.2,2,0.3,4.1,0.5,6.1c-6.8-2.8-10.9-4.4-10.9-4.4l32.6-19.7l3.4,0.2c35.8,16.2,99.9,45.2,99.9,45.2l19.8,6.8
			l19.4-0.9c0,0,53.8-9.2,106.5-19.7c2.5,2,5,4.2,7.5,6.5c2.2,2.1,4.5,4.2,7.3,5.3c2.8,1.1,6.5,0.7,8.3-1.8c1-1.3,1.2-3,1.3-4.6
			c0.1-2.6-2.6-5.9-6.6-9.1c17-3.6,33.3-7.2,46.8-10.6L1382.3,1301.9z"/>
		<path fill="#DCDCDD" d="M1294.9,1193.2l-258-7.6c0.7,1.5,1.4,3,1.9,4.6c-25.9-8.5-46.5-15.2-49.6-15.8l78.1-21c0,0.1,0,0.2,0,0.4
			c-0.8,18.7,49.3,26.8,111.4,29.3c56.2,2.3,103.1-5.6,112.1-20.5c5.2,2.5,11.1,5.1,16.1,6.5l11.3,4.1c1.9,0.9,4.3,1.8,6.8,2.5
			l45.3,16.4l-18.1,3.4c0-0.2,0-0.5,0-0.7l-53.4-1.6L1294.9,1193.2z"/>
		<path fill="#231815" d="M1358.2,1300.6c0.8,2,1.1,4.3,1,6.8l-28.5,6.8c-0.8-0.6-1.5-1.1-2.1-1.4L1358.2,1300.6z"/>
		<path fill="#231815" d="M1330.7,1314.2l28.5-6.8c-0.2,4.8-1.7,10.2-2.6,14.3c-8.6,2.2-8.6,2.2-17.1,4.4
			C1338.7,1322.5,1334.4,1317.1,1330.7,1314.2z"/>
		<path fill="#231815" d="M1281.5,1231.3c-0.4-2.3-1-4.6-2-6.7c-3.4-6.7-11.2-10.9-18.7-9.9c0-1.1,0-1.7,0-2l91.5-17.3
			c0.6,11.5,1.1,22.9,1.7,34.4c0.3,5.7,0.5,11.4,0.1,17.1c-0.6,8.2-2.6,16.4-1.2,24.6c0.9,5,3,10.1,1.3,14.8l4.6-0.7
			c-1.4,0.4-2.9,0.7-4.4,1.1l-0.8-0.5l-72.2-3.9c0.2-4.3,0.3-8.7,0.4-13c0.2-9.4,0.4-18.8,0.4-28.2
			C1282.1,1238,1282.1,1234.6,1281.5,1231.3z"/>
		<path fill="#231815" d="M1353.5,1286.4l0.8,0.5c-13.5,3.4-29.7,7-46.8,10.6c-7.6-6-19.8-11.5-26.5-11.1c0-1.3,0.1-2.5,0.1-3.8
			L1353.5,1286.4z"/>
		<path fill="#DCDCDD" d="M1260.8,1212.8l-98.4,18.6l0.1,0c0,0-72.3-24.3-123.6-41.2c-0.6-1.5-1.2-3.1-1.9-4.6l258,7.6
			c-13.3,2.6-27.3,5.4-42,8.4c15.3-2.6,30.7-5.3,46-8.3l53.4,1.6c0,0.2,0,0.5,0,0.7L1260.8,1212.8z"/>
		<path fill="#DCDCDD" d="M1333.9,1085.5c0-0.1-0.1-0.2-0.1-0.3c-7,1.2-14.5,2.2-20.7-1.1c-1.9-1-3.5-2.6-4.7-4.4
			c0.9-3.9,1.2-7.4,1.2-7.4s0.2-2.1,0.1-5.8c7.8-0.2,15.5-0.5,23.3-0.7c0.1,0,0.1,0,0.2,0c2.9-0.1,6.3,0.1,8.1,2.4
			c1.1,1.4,1.4,3.4,1.6,5.2c1.2,11.5,2.4,23,3.6,34.5c0.4,3.5,0.7,7,0.4,10.5c-0.6,7.1-3.8,13.6-6.3,20.2
			c-4.5,11.4-9.4,25.6-10.5,37.8c-1.6,0-3.3-0.3-5-0.8l-6.8-2.5c-2.5-1.2-4.2-2.2-4.1-2.3c9.6-5.6,5.5-37.3,2.8-45.1
			c0.7,0.4,1.5,0.7,2.3,0.9c4.1,1,8.8-0.9,11.7-4.2c3.4-3.9,4.6-9.3,5.2-14.4C1337,1100.5,1336.8,1092.6,1333.9,1085.5z"/>
		<path fill="#DCDCDD" d="M1333.8,1085.2c0,0.1,0.1,0.2,0.1,0.3c-1.5,6.8-3.4,13.8-8.2,18.8c-1.9,1.9-4,3.4-6.4,4.6c0,0-0.1,0-0.1,0
			c0-0.2-0.1-0.3-0.1-0.5c-0.1,0-0.1,0.1-0.2,0.1c0-0.1,0-0.1,0-0.1c-0.2,0-0.4,0.2-0.5,0.3c-0.4,0.2-0.8,0.2-1.2,0.2
			c0,0.2,0,0.3,0.1,0.5c0,0,0,0-0.1,0c0,0.1,0,0.1,0,0.2c0,0,0,0,0,0c-0.1,0.1-0.2,0.2-0.2,0.3c0,0-0.1,0-0.1,0.1
			c-4.5,1.8-9.5,2.8-14.3,3.6c-6.6,1.2-13.3,2.3-19.9,3.5c-0.4-2.2-0.9-4.4-1.8-6.5c-0.6-1.5-1.5-3-2.7-4c-0.9-1.4-3.5-2.1-5.1-2.3
			c-1.2-0.1-2.4-0.1-3.5,0.2l-0.1-1.1c7.3-1.8,14.5-3.9,21.5-6.5c5.4-2,11.1-4.4,14.4-9.1c1.4-1.9,2.3-5.1,3-8.1
			c1.2,1.8,2.8,3.4,4.7,4.4C1319.3,1087.4,1326.8,1086.4,1333.8,1085.2z"/>
		<path fill="#DCDCDD" d="M1333.2,1065.5l0,0.4c-0.1,0-0.1,0-0.2,0c-7.8,0.2-15.5,0.4-23.3,0.7c-0.7-20.5-13.2-89.5-148.9-102.8
			c-12.8-2.1-27.6-2.7-39.6,2.4l94-38.7C1320.7,967.4,1333.3,1018.9,1333.2,1065.5z"/>
		<path fill="#DCDCDD" d="M1318.2,1173.2l6.8,2.5C1322.5,1175.1,1320.1,1174.1,1318.2,1173.2z"/>
		<path fill="#DCDCDD" d="M1307.6,1297.4c4,3.2,6.7,6.4,6.6,9.1c-0.1,1.6-0.4,3.3-1.3,4.6c-1.8,2.4-5.4,2.8-8.3,1.8
			c-2.8-1.1-5.1-3.3-7.3-5.3c-2.5-2.2-4.9-4.4-7.5-6.5C1295.8,1299.8,1301.8,1298.6,1307.6,1297.4z"/>
		<path fill="#DCDCDD" d="M1309.7,1066.5c0.1,3.7-0.1,5.8-0.1,5.8s-0.3,3.5-1.2,7.4c-2.7-4.2-3.2-9.8,0.5-13.1
			C1309.2,1066.5,1309.4,1066.5,1309.7,1066.5z"/>
		<path fill="#DCDCDD" d="M1294.9,1193.2l4,0.1c-15.3,3-30.6,5.6-46,8.3C1267.6,1198.6,1281.6,1195.8,1294.9,1193.2z"/>
		<path fill="#231815" d="M1276.2,1142.7c10.5,3.8,16.4,8.7,16.1,15c-0.1,1.7-0.6,3.3-1.5,4.9c-4.3-2-8.1-3.9-10.3-4.8
			c-12.4-4.7-47.5-17-73.9-25.9c6.1,0.4,12.1,0.9,17.8,1.4c12.1,1.1,23.2,2.6,32.6,4.4C1264.4,1139.1,1270.9,1140.8,1276.2,1142.7z"
			/>
		<path fill="#DCDCDD" d="M1281.1,1286.3c6.6-0.4,18.9,5.1,26.5,11.1c-5.8,1.2-11.8,2.4-17.8,3.6c-3.9-3.2-8-6.1-12.5-8.7
			c-2.2-0.2-1.2-3.8,0.6-5.1C1278.7,1286.7,1279.8,1286.4,1281.1,1286.3z"/>
		<path fill="#231815" d="M1277.3,1292.4c4.5,2.5,8.6,5.5,12.5,8.7c-52.7,10.6-106.5,19.7-106.5,19.7l-19.4,0.9l-19.8-6.8
			c0,0-64-29-99.9-45.2l71.9,3.9c27.1,9.3,49,16.6,49,16.6c15.9-0.1,37.5-8.2,53.7-11l62.5,3.4c0,1.3-0.1,2.5-0.1,3.8
			c-1.3,0.1-2.4,0.4-3.2,1C1276.2,1288.6,1275.1,1292.1,1277.3,1292.4z M1174.1,1311.5v-16.3l-34.6-2l-0.7,17.7
			c0,0,10.7,7.5,17.2,7.3C1161.9,1318.1,1174.1,1311.5,1174.1,1311.5z"/>
		<path fill="#DCDCDD" d="M1114.4,830.2c0.1-0.1,0.1-0.2,0.1-0.2c-0.1-0.2-0.5-0.1-0.5,0.2C1114.1,830.2,1114.2,830.2,1114.4,830.2z
			 M1111.3,835.7c0.7-1.3,1.4-2.5,2.3-3.7c0,0,0-0.1,0.1-0.1c0.1-0.1,0.2-0.2,0.2-0.3c0.1-0.1,0.1-0.1,0.1-0.2
			c-0.7,0.6-1.3,1.3-1.7,2.1C1111.9,834.2,1111.6,834.9,1111.3,835.7z M1215.2,927.4l-94,38.7c-13.5,7.2-28,2.4-34.3,0.1
			c-6.1-2.2-12.8-5.3-15.3-11.3c-3.4-8.4,3.1-18.5-0.3-26.9c-0.7-1.8-1.9-3.6-1.8-5.5l0.9,0c9,6.7,22.8,0.1,25.4-10.8l0.1-0.3
			c-1.2-10.2-13-18.4-23.1-16.7c-0.6,2.8-0.3,5.9,0.6,9.2c-1-2.6-1.9-5.3-1.4-7.9c1-5.1,6.6-7.6,10.6-11c0.3-0.3,0.7-0.7,0.8-1.1
			c0.2-0.9-0.7-1.7-1.7-1.9c-0.9-0.1-1.9,0.2-2.8,0.3c-3.5,0.5-6.9-2.5-7.7-5.9c-0.8-3.4,0.4-7.1,2.6-10c2.1-2.8,5-5,7.8-7.2
			c7.4-5.5,15.2-12.2,16.2-21.4c0.4-4-0.6-7.9-1.6-11.8c-1.5-5.9-6.1-10.2-6.1-19.8c0-9.6,4.1-20.6,12-28.9
			c7.9-8.3,18.6-13.3,29.2-17.8c11.3-4.8,23-9.2,35.2-10.4c15.4-1.5,31,2.3,45.1,8.6c14.1,6.3,27,15.2,39.5,24.2
			c7.6,5.4,15.1,11.1,21.1,18.2c6.9,8.3,11.4,18.3,14.2,28.7c4.7,17.6,4.3,36.7-2.4,53.6c-6.8,16.9-20.2,31.3-37.2,37.8
			c-9.9,3.8-20.6,4.8-31.1,6.7L1215.2,927.4z M1111.2,841.6C1111.2,841.6,1111.2,841.7,1111.2,841.6
			C1111.2,841.6,1111.2,841.6,1111.2,841.6C1111.2,841.6,1111.2,841.6,1111.2,841.6z M1090.6,883.7c0.4,0.3,0.8,0.6,1.3,0.7
			C1091.5,884.1,1091.1,883.9,1090.6,883.7z M1118.5,831.2c-0.1,0-0.2,0.1-0.4,0.2c-0.2,0-0.3,0.1-0.5,0.2c0,0,0,0-0.1,0v0l0.5-0.5
			c-0.3,0.1-0.5,0.2-0.8,0.3c-0.1,0-0.2,0.1-0.3,0.1c-1.6,0.8-2.8,2.1-3.7,3.6c-0.5,1-0.8,2.1-1,3.2v0c-0.6,2.3,0.6,5.1,2.2,6.9
			c0.3-0.1,0.7-0.1,1-0.2c-0.2,0.2-0.5,0.3-0.8,0.4c1,0,2-0.3,2.8-0.8c7.9-1.3,15.3-1.2,23.5,0.1c-4.1-5.4-10.6-8.4-16.8-11.3
			c-1.9-0.9-3.7-1.7-5.7-2.4l0,0.1C1118.6,831.1,1118.6,831.2,1118.5,831.2z M1154.4,822.4c-2.8-2-5.9-3.7-9.1-4.9
			c-3.5-1.3-7.1-2.1-10.7-2.9c-3.3-0.7-6.7-1.5-10-2.2c-0.9-0.2-1.8-0.4-2.7-0.4c-3.2,0.1-5.6,2.9-7.6,5.5v0.2
			c4.4-1.2,10.5-0.8,15.1-0.4c2.5,0.2,5.1,0.4,7.6,1.1c2.6,0.7,5,1.8,7.6,2.6C1147.7,821.9,1151,822.1,1154.4,822.4z"/>
		<path fill="#FFFFFF" d="M1283.1,1119.9c1.2,7.5,2.3,15.1,1.4,22.6l-7.2-2.6l-10.7-3.8c0-0.1,0-0.2,0-0.3l13.6,3.7
			c2.3-7.1,2.8-14.8,1.4-22.2c0.4-0.1,0.7-0.1,1.1-0.2C1282.8,1118.1,1282.9,1119,1283.1,1119.9z"/>
		<path fill="#FFFFFF" d="M1282.6,1117.1c-0.4,0.1-0.7,0.1-1.1,0.2c-0.6-3.6-1.7-7.1-3.2-10.4c0-0.1-0.1-0.2-0.2-0.3
			c1.2,1,2.1,2.5,2.7,4C1281.7,1112.7,1282.2,1114.9,1282.6,1117.1z"/>
		<path fill="#231815" d="M1281.5,1231.3c0.5,3.3,0.5,6.7,0.5,10c-0.1,9.4-0.2,18.8-0.4,28.2c-20.3,3.1-40.6,6.2-60.9,9.3
			c-0.6,0.1-1.3,0.2-1.9,0.3l-102.7-5.5c-24.7-8.5-53.8-18.8-74.6-27v0c-0.4-0.9-0.9-1.9-1.4-2.8c-1.5-2.4-3.5-4.7-4.2-7.5
			c-0.9-4,1.1-8,2.6-11.8c1.9-4.8,3-9.8,3.2-14.9l125.2,44L1281.5,1231.3z"/>
		<path fill="#DCDCDD" d="M1281.5,1117.3c1.3,7.4,0.9,15.1-1.4,22.2l-13.6-3.7c-0.1-4.8-0.2-9.7,0.1-14.5c4.3-2.2,9.2-3,13.9-3.9
			C1280.8,1117.5,1281.2,1117.4,1281.5,1117.3z"/>
		<path fill="#231815" d="M1220.7,1278.8c20.3-3.1,40.6-6.2,60.9-9.3c-0.1,4.3-0.2,8.7-0.4,13l-62.5-3.4
			C1219.4,1279.1,1220.1,1278.9,1220.7,1278.8z"/>
		<path fill="#DCDCDD" d="M1281.5,1117.3c-0.3,0.1-0.7,0.1-1,0.2c-4.8,0.8-9.6,1.7-13.9,3.9c0.1-2.1,0.4-4.3,0.7-6.4
			c0.4-2.4,1-4.8,2.4-6.7c1.4-1.9,3.9-3.3,6.2-2.7c0.8,0.2,1.6,0.6,2.2,1.2c0.1,0.1,0.1,0.2,0.2,0.3
			C1279.8,1110.3,1280.9,1113.8,1281.5,1117.3z"/>
		<path fill="#231815" d="M1281.5,1231.3l-114.7,22.3l-125.2-44c0.4-6.6-0.6-13.3-2.8-19.5c51.3,16.9,123.6,41.2,123.6,41.2l-0.1,0
			l98.4-18.6c0,0.3,0,0.9,0,2c7.4-1,15.3,3.1,18.7,9.9C1280.5,1226.8,1281.2,1229,1281.5,1231.3z"/>
		<path fill="#231815" d="M1280.5,1157.8c2.2,0.8,6,2.7,10.3,4.8c-9,14.9-55.9,22.8-112.1,20.5c-62.1-2.6-112.1-10.6-111.4-29.3
			c0-0.1,0-0.2,0-0.4l86.3-23.2c8.7-0.1,17.8,0.1,27.2,0.5c8.9,0.4,17.5,0.8,25.8,1.4C1233,1140.9,1268.1,1153.1,1280.5,1157.8z
			 M1251.3,1158.5c0.2-6.1-27.4-8.7-61.7-10.1c-34.2-1.4-62.1,0.5-62.4,6.8c-0.3,6.3,27.4,9.5,61.6,10.9
			C1223.2,1167.5,1251.1,1164.6,1251.3,1158.5z"/>
		<path fill="#DCDCDD" d="M1262.8,1108.9c1.2-1.5,2.7-2.7,4.5-3.5c0.7-0.3,1.5-0.6,2.2-0.8c1.2-0.3,2.4-0.3,3.5-0.2
			c1.6,0.2,4.1,0.8,5.1,2.3c-0.7-0.6-1.4-0.9-2.2-1.2c-2.3-0.5-4.8,0.8-6.2,2.7c-1.4,1.9-2,4.4-2.4,6.7c-0.4,2.1-0.6,4.3-0.7,6.4
			c-0.8,0.4-1.5,0.8-2.2,1.3h-0.9c-1.8,0.3-3.7,0.1-5.5-0.6l-0.5-0.1c0.3-1.4,0.6-2.7,0.9-4.1c0.5-1.8,1.1-3.6,2-5.3
			C1261.1,1111.3,1261.9,1110,1262.8,1108.9z"/>
		<path fill="#DCDCDD" d="M1262.8,1108.9c-0.9,1.1-1.8,2.3-2.4,3.7c-0.9,1.7-1.5,3.5-2,5.3c-0.4,1.3-0.7,2.7-0.9,4.1
			c0,0.1,0,0.2-0.1,0.3c-0.7,3.6-1.2,7.1-1.6,10.7l1.2,0.3c-0.2,1.2-0.1,2.4,0.1,3.7l-0.1,0.7c-9.5-1.8-20.5-3.2-32.6-4.4l0.3-3
			c0.2-8.2,6.5-15.2,13.8-18.8c7.3-3.7,15.6-4.8,23.6-6.4c2.5-0.5,4.9-1,7.3-1.6l0.1,1.1c-0.8,0.2-1.5,0.4-2.2,0.8
			C1265.6,1106.2,1264.1,1107.4,1262.8,1108.9z"/>
		<path fill="#DCDCDD" d="M1257.4,1131.9c0.4-1.4,1-2.8,1.8-4c1.3-2.1,3.2-3.9,5.2-5.2c0.7-0.5,1.5-0.9,2.2-1.3
			c-0.3,4.8-0.2,9.7-0.1,14.5l-9.5-2.6C1257.1,1132.8,1257.2,1132.3,1257.4,1131.9z"/>
		<path fill="#DCDCDD" d="M1259.1,1127.9c-0.8,1.2-1.4,2.6-1.8,4c-0.1,0.5-0.2,1-0.3,1.4l-1.2-0.3c0.4-3.6,1-7.2,1.6-10.7
			c0-0.1,0-0.2,0.1-0.3l0.5,0.1c1.7,0.7,3.6,0.9,5.5,0.6h0.9C1262.3,1124,1260.5,1125.8,1259.1,1127.9z"/>
		<path fill="#DCDCDD" d="M1189.7,1148.3c34.2,1.4,61.9,4.1,61.7,10.1c-0.2,6.1-28.2,9-62.4,7.6c-34.2-1.4-61.9-4.6-61.6-10.9
			C1127.6,1148.8,1155.5,1146.9,1189.7,1148.3z"/>
		<path fill="#231815" d="M1116,1273.6l102.7,5.5c-16.2,2.9-37.8,10.9-53.7,11C1165,1290.2,1143.1,1283,1116,1273.6z"/>
		<path fill="#231815" d="M1183.6,1337c0.4,1.2,0.4,7.3,0.3,12.1l-20.1,4.8c-2.5-1.5-11.6-5.5-24.2-10.8c0.5-5.1,1.2-11.5,1.8-14.1
			L1183.6,1337z"/>
		<path fill="#231815" d="M1163.7,1353.8l20.1-4.8c-0.1,3.2-0.2,5.9-0.3,6.2c-0.3,0.7-21.2,6.3-21.2,6.3l-23.5-11.5
			c0,0,0.2-3.1,0.6-7C1152.2,1348.3,1161.3,1352.4,1163.7,1353.8z"/>
		<path fill="#DCDCDD" d="M1206.6,1131.9c-8.3-0.6-16.9-1-25.8-1.4c-9.4-0.4-18.5-0.6-27.2-0.5l26.1-7
			C1185.3,1124.8,1195.1,1128,1206.6,1131.9z"/>
		<path fill="#231815" d="M1174.1,1295.2v16.3c0,0-12.2,6.6-18,6.7c-6.5,0.2-17.2-7.3-17.2-7.3l0.7-17.7L1174.1,1295.2z"/>
		<path fill="#231815" d="M1153.7,1130.1l-86.3,23.2C1068.5,1137.7,1105,1130.4,1153.7,1130.1z"/>
		<path fill="#231815" d="M1145.2,817.5c3.2,1.2,6.3,2.9,9.1,4.9c-3.3-0.3-6.7-0.5-9.9-1.4c-2.6-0.7-5-1.9-7.6-2.6
			c-2.5-0.7-5-0.9-7.6-1.1c-4.6-0.4-10.7-0.8-15.1,0.4v-0.2c2-2.6,4.4-5.3,7.6-5.5c0.9,0,1.8,0.2,2.7,0.4c3.3,0.7,6.7,1.4,10,2.2
			C1138.1,815.4,1141.8,816.2,1145.2,817.5z"/>
		<path fill="#DCDCDD" d="M1118.5,831.2c0.1,0,0.1-0.1,0.2-0.1l0-0.1c1.9,0.7,3.8,1.6,5.7,2.4c6.2,2.8,12.6,5.8,16.8,11.3
			c-8.2-1.3-15.5-1.4-23.5-0.1c-0.7,0.1-1.4,0.2-2.1,0.4c-0.3,0.1-0.7,0.1-1,0.2c-1.6-1.9-2.8-4.6-2.2-6.9c-0.1,1,0,2,0.2,3
			c0.3,1.2,0.9,2.3,2,2.8c1,0.5,2.3,0.3,3.3-0.3s1.7-1.6,2.2-2.6c1.2-2.4,1.6-5.4,0.5-7.9c-0.3-0.7-0.7-1.4-1.4-1.7
			c-0.3-0.2-0.7-0.2-1.1-0.2C1118.3,831.3,1118.4,831.2,1118.5,831.2z"/>
		<path fill="#231815" d="M1117.7,831.5c0.1-0.1,0.3-0.1,0.4-0.2c0.4,0,0.8,0,1.1,0.2c0.7,0.3,1.1,1,1.4,1.7
			c1.1,2.5,0.7,5.5-0.5,7.9c-0.5,1-1.2,2-2.2,2.6s-2.2,0.8-3.3,0.3c-1.1-0.5-1.7-1.7-2-2.8c-0.3-1-0.3-2-0.2-3v0
			c0.1-0.4,0.2-0.8,0.5-1.2C1114.1,834.9,1115.6,832.7,1117.7,831.5L1117.7,831.5z"/>
		<path fill="#231815" d="M1118.2,831.3c-0.1,0.1-0.3,0.1-0.4,0.2h0c0,0-0.1,0-0.1,0C1117.8,831.4,1118,831.4,1118.2,831.3z"/>
		<path fill="#231815" d="M1118.1,831l-0.5,0.5c-0.1,0-0.2-0.1-0.3-0.2C1117.6,831.2,1117.8,831.1,1118.1,831z"/>
		<path fill="#231815" d="M1117.4,831.6c0.1-0.1,0.1-0.1,0.2-0.1c0,0,0.1,0,0.1,0c-2.2,1.2-3.7,3.3-4.9,5.5
			c-0.2,0.4-0.4,0.8-0.5,1.2c0.1-1.1,0.4-2.2,1-3.2c0.8-1.5,2.1-2.8,3.7-3.6c0.1-0.1,0.2-0.1,0.3-0.1c0.1,0,0.2,0.1,0.3,0.2v0
			L1117.4,831.6z"/>
		<path fill="#DCDCDD" d="M1117.6,831.5C1117.6,831.5,1117.6,831.5,1117.6,831.5c0,0.1-0.1,0.1-0.2,0.2L1117.6,831.5z"/>
		<path fill="#DCDCDD" d="M1115.6,845c0.7-0.1,1.4-0.3,2.1-0.4c-0.9,0.5-1.8,0.8-2.8,0.8C1115.1,845.3,1115.3,845.2,1115.6,845z"/>
		<path fill="#231815" d="M1116,1273.6l-71.9-3.9c-1.5-0.7-2.9-1.3-4.3-1.9c3.9-6.2,4.4-14.4,1.5-21.2
			C1062.2,1254.9,1091.3,1265.1,1116,1273.6z"/>
		<path fill="#DCDCDD" d="M1114.4,830c0,0.1,0,0.2-0.1,0.2c-0.2,0-0.3-0.1-0.4-0.1C1113.9,829.9,1114.3,829.8,1114.4,830z"/>
		<path fill="#DCDCDD" d="M1114.1,831.4c-0.1,0.1-0.1,0.1-0.1,0.2c-0.3,0.3-0.5,0.5-0.8,0.8c0,0,0,0,0,0c-0.3,0.3-0.6,0.7-0.8,1.1
			C1112.8,832.7,1113.4,832,1114.1,831.4z"/>
		<path fill="#DCDCDD" d="M1114,831.6c-0.1,0.1-0.2,0.2-0.2,0.3c0,0,0,0-0.1,0.1c-0.2,0.1-0.3,0.3-0.4,0.4
			C1113.4,832.1,1113.7,831.9,1114,831.6z"/>
		<path fill="#DCDCDD" d="M1112.4,833.5c0.2-0.4,0.5-0.7,0.8-1.1c0,0,0,0,0,0c0.1-0.2,0.3-0.3,0.4-0.4c-0.9,1.2-1.7,2.4-2.3,3.7
			C1111.6,834.9,1111.9,834.2,1112.4,833.5z"/>
		<path fill="#DCDCDD" d="M1111.2,841.6c0,0,0,0.1,0,0.1C1111.2,841.7,1111.2,841.6,1111.2,841.6
			C1111.2,841.6,1111.2,841.6,1111.2,841.6z"/>
		<path fill="#DCDCDD" d="M1096,911.4l-0.1,0.3c-3.5,7.6-14.6,10.4-21.3,5.3c-1.7,1.6-3,3.4-4.1,5.5l-0.9,0c0-0.1,0-0.2,0-0.4
			c0.4-2.9,3.8-4.4,5.3-6.9c0.9-1.5,1-3,0.8-4.6c0.1,0.1,0.1,0.2,0.1,0.3C1079.9,903.1,1091.4,903.9,1096,911.4z"/>
		<path fill="#DCDCDD" d="M1091.9,884.4c-0.5-0.1-0.9-0.4-1.3-0.7C1091.1,883.9,1091.5,884.1,1091.9,884.4z"/>
		<path fill="#231815" d="M1096,911.4c-4.6-7.5-16.2-8.3-20.2-0.4c-0.1-0.1-0.1-0.2-0.1-0.3c-0.3-2.2-1.3-4.4-2.2-6.7c0,0,0,0,0,0
			c-0.8-3.3-1.1-6.4-0.6-9.2C1083.1,893,1094.8,901.2,1096,911.4z"/>
		<path fill="#231815" d="M1074.6,917.1c6.7,5.1,17.8,2.3,21.3-5.3c-2.7,10.9-16.5,17.5-25.4,10.8
			C1071.6,920.5,1072.9,918.7,1074.6,917.1z"/>
		<path fill="#231815" d="M1073.5,904c0.9,2.3,1.9,4.5,2.2,6.7C1074.8,908.4,1074,906.1,1073.5,904z"/>
		<path fill="#231815" d="M1018.5,1287.5l33.8,13.7c-0.8,1.3-1.9,3-3.2,4.6c-12.1-4.9-22.7-9.2-30.1-12.2
			C1018.8,1291.6,1018.7,1289.6,1018.5,1287.5z"/>
		<path fill="#231815" d="M1049.1,1305.8c-2.9,3.7-6.3,7.2-6.3,7.2s-15.2-5.2-22.8-7.9c-0.3-3.8-0.7-7.7-1-11.5
			C1026.4,1296.7,1037,1300.9,1049.1,1305.8z"/>
	</g>
	<g>
		<path fill="none" stroke="#231815" stroke-miterlimit="10" d="M1282.6,1117.1c6.7-1.2,13.3-2.3,19.9-3.5c4.8-0.8,9.8-1.8,14.3-3.6
			c0,0,0,0,0,0c0.1,0,0.2-0.1,0.2-0.1c0,0,0,0,0.1,0c0,0,0.1,0,0.1,0c0.1,0,0.1-0.1,0.2-0.1c0,0,0,0,0,0c0.2-0.1,0.4-0.2,0.6-0.2
			c0.1,0,0.1,0,0.2-0.1c0.1,0,0.1-0.1,0.2-0.1c0,0,0,0,0,0c0.1-0.1,0.2-0.1,0.4-0.2c0,0,0.1,0,0.1-0.1c0.1,0,0.1-0.1,0.2-0.1
			c0,0,0,0,0.1,0c0,0,0.1,0,0.1,0c2.4-1.2,4.6-2.7,6.4-4.6c4.8-5,6.7-12,8.2-18.8"/>
		<path fill="none" stroke="#231815" stroke-miterlimit="10" d="M1257.2,1137c-0.2-1.2-0.3-2.5-0.1-3.7"/>
		<path fill="none" stroke="#231815" stroke-miterlimit="10" d="M1319,1109.7C1319,1109.7,1319,1109.6,1319,1109.7
			c0-0.1,0-0.2,0-0.2c0,0,0,0,0,0c0-0.1,0-0.2,0-0.3c0,0,0-0.1,0-0.1c0,0,0-0.1,0-0.1c0,0,0-0.1,0-0.1c0-0.1,0-0.3,0-0.3
			c0-0.1,0-0.1,0-0.1c-0.2,0-0.4,0.2-0.5,0.3c0,0.1-0.1,0.1-0.1,0.2c0,0,0,0,0,0c0,0,0,0.1,0.1,0.1c0,0,0,0,0,0.1
			c0,0,0.1,0.1,0.1,0.2l0,0c0,0,0,0.1,0,0.1s0,0,0,0.1c0.1,0.1,0.1,0.2,0.1,0.4c0,0,0,0.1,0,0.1c0,0.1,0.1,0.2,0.1,0.3
			c0.1,0.1,0.1,0.2,0.1,0.4c0,0,0,0,0,0.1c0,0,0,0,0,0.1c0,0.1,0,0.1,0,0.2c0,0,0,0,0,0c0,0,0,0.1,0,0.2c0,0.1,0,0.1,0,0.2
			c0,0.1,0,0.2,0.1,0.3c0.8,4.5-0.7,10,0.2,14.4"/>
		<path fill="none" stroke="#231815" stroke-miterlimit="10" d="M1319.2,1110.4c0,0,0-0.1,0-0.1c0,0,0-0.1,0-0.1c0-0.1,0-0.2,0-0.3
			c0-0.1,0-0.2,0-0.3c0,0,0,0,0,0c0-0.1,0-0.2,0-0.2c0,0,0,0,0,0c0-0.1,0-0.2-0.1-0.3c0,0,0,0,0-0.1c0-0.2-0.1-0.3-0.1-0.5
			c-0.1,0-0.1,0.1-0.2,0.1c-0.2,0.1-0.3,0.2-0.5,0.2c-0.4,0.2-0.8,0.2-1.2,0.2c0,0.2,0,0.3,0.1,0.5c0,0,0,0.1,0,0.1c0,0,0,0,0,0
			c0,0,0,0.1,0.1,0.1c0,0,0,0,0,0c0,0,0.1,0,0.1,0.1c0,0,0,0,0,0c0.1,0.1,0.3,0.1,0.4,0.2c0.2,0,0.5,0.1,0.7,0c0.1,0,0.1,0,0.2,0
			c0.1,0,0.1,0,0.2,0c0,0,0,0,0.1,0c0,0,0-0.1,0-0.1"/>
		<path fill="none" stroke="#231815" stroke-miterlimit="10" d="M1318.7,1111.2c0.1-0.1,0.1-0.1,0.2-0.2c0,0,0,0,0-0.1
			c0.1-0.1,0.2-0.3,0.2-0.4c0,0,0-0.1,0-0.1"/>
		<path fill="none" stroke="#231815" stroke-miterlimit="10" d="M1318.3,1111.4c0,0,0.1,0,0.2-0.1"/>
		<path fill="none" stroke="#231815" stroke-miterlimit="10" d="M1317.3,1111.5c0.1,0,0.1,0,0.2,0.1c0.1,0,0.3,0,0.4,0
			c0.1,0,0.1,0,0.2,0c0,0,0.1,0,0.1,0"/>
		<path fill="none" stroke="#231815" stroke-miterlimit="10" d="M1317,1111.3c0.1,0.1,0.2,0.1,0.2,0.1"/>
		<path fill="none" stroke="#231815" stroke-miterlimit="10" d="M1318.7,1110.9c0-0.1,0.1-0.1,0.1-0.2c0,0,0.1-0.1,0.1-0.1
			c0.1-0.1,0.2-0.3,0.2-0.5c0,0,0,0,0-0.1c0,0,0-0.1,0-0.1c0-0.1,0-0.3,0-0.4v0c0-0.1,0-0.1,0-0.2c0,0,0-0.1,0-0.1
			c0-0.1,0-0.2-0.1-0.2c0,0,0,0,0,0c-0.1,0-0.1,0-0.2,0c-0.2,0-0.4,0.1-0.6,0.1c-0.2,0.1-0.3,0.1-0.5,0.2c-0.1,0-0.2,0.1-0.2,0.1
			c-0.1,0-0.1,0.1-0.1,0.1c-0.1,0-0.1,0.1-0.2,0.1c-0.1,0-0.1,0.1-0.1,0.1c-0.1,0.1-0.2,0.2-0.2,0.2c0,0-0.1,0-0.1,0.1
			c-0.2,0.3-0.3,0.6-0.1,1c0.1,0.1,0.2,0.2,0.3,0.3"/>
		<path fill="none" stroke="#231815" stroke-miterlimit="10" d="M1319.1,1110.5c0-0.1,0.1-0.2,0.1-0.2c0,0,0-0.1,0-0.1
			c0,0,0-0.1,0-0.1c0-0.1,0-0.1,0-0.2c0-0.1-0.1-0.1-0.1-0.2c0,0,0,0,0,0c0,0,0,0,0,0c0,0,0,0,0,0c-0.1-0.1-0.1-0.1-0.2-0.2
			c0,0-0.1,0-0.1-0.1c-0.1,0-0.1-0.1-0.2-0.1c0,0,0,0,0,0c-0.1,0-0.2-0.1-0.4-0.1c-0.1,0-0.1,0-0.2,0c0,0-0.1,0-0.1,0
			c-0.1,0-0.2,0.1-0.3,0.1c0,0-0.1,0-0.1,0.1c0,0-0.1,0-0.1,0.1c0,0,0,0,0,0c-0.1,0.1-0.2,0.2-0.2,0.3c0,0,0,0,0,0.1
			c-0.2,0.4-0.2,1,0.1,1.3l0,0c0,0.1,0.1,0.1,0.1,0.1c0.1,0,0.1,0,0.2,0c0.1,0,0.1,0,0.2,0c0.1,0,0.1,0,0.2,0c0.1,0,0.1,0,0.1,0
			c0.1,0,0.2-0.1,0.3-0.1c0.2-0.1,0.4-0.3,0.5-0.4"/>
		<path fill="none" stroke="#231815" stroke-miterlimit="10" d="M1318,1111c0.1,0,0.2,0,0.2,0c0.2,0,0.3,0,0.4-0.1c0,0,0,0,0,0
			c0.1,0,0.2-0.1,0.2-0.2c0.1-0.1,0.1-0.1,0.1-0.2"/>
		<path fill="none" stroke="#231815" stroke-miterlimit="10" d="M1319.6,1109.5C1319.6,1109.5,1319.6,1109.4,1319.6,1109.5
			c0-0.1,0-0.2,0-0.2c0,0,0-0.1,0-0.1c0,0-0.1,0-0.1-0.1c-0.1-0.1-0.2-0.1-0.3-0.1c0,0-0.1,0-0.1,0c-0.1,0-0.2,0-0.3,0
			c-0.2,0-0.4,0-0.6,0.1c-0.2,0.1-0.4,0.2-0.6,0.3c0,0,0,0-0.1,0.1c0,0,0,0-0.1,0.1c-0.1,0.1-0.1,0.1-0.2,0.2c0,0,0,0,0,0
			c0,0-0.1,0.1-0.1,0.2c-0.1,0.1-0.1,0.2-0.1,0.3c-0.1,0.3-0.1,0.6,0,0.8h0c0,0,0,0,0,0c0.1,0,0.2,0,0.2,0c0.2,0,0.4,0.1,0.6,0.1"/>
		<path fill="none" stroke="#231815" stroke-miterlimit="10" d="M1317.2,1110.9c0.1,0,0.2,0.1,0.3,0.1c0.2,0,0.4,0,0.6,0
			c0,0,0,0,0,0c0.1,0,0.2,0,0.2-0.1c0.2-0.1,0.4-0.1,0.5-0.2c0,0,0.1,0,0.1-0.1c0,0,0.1-0.1,0.2-0.1c0,0,0,0,0,0
			c0,0,0.1-0.1,0.1-0.1c0,0,0,0,0.1-0.1c0,0,0,0,0,0c0,0,0.1,0,0.1-0.1c0,0,0-0.1,0.1-0.1c0-0.1,0.1-0.1,0.1-0.2c0,0,0-0.1,0.1-0.1
			c0-0.1,0.1-0.2,0.1-0.3c0,0,0,0,0-0.1c0,0,0,0,0,0c0,0,0,0,0-0.1c0,0,0,0,0,0"/>
		<path fill="none" stroke="#231815" stroke-miterlimit="10" d="M1319.6,1109.5c-0.1,0-0.2,0-0.2,0c-0.1,0-0.1,0-0.1,0
			c0,0-0.1,0-0.1,0c0,0-0.1,0-0.1,0c0,0,0,0,0,0c0,0,0,0-0.1,0c-0.1,0-0.2,0-0.2,0c-0.1,0-0.2,0-0.3,0c-0.1,0-0.3,0-0.4,0
			c-0.1,0-0.2,0-0.3,0c0,0,0,0-0.1,0c-0.1,0-0.1,0-0.2,0c0,0,0,0-0.1,0c-0.1,0-0.1,0-0.1,0c0,0-0.1,0-0.1,0c0,0,0,0-0.1,0
			c0,0.1,0,0.1,0,0.2c0,0,0,0.1,0,0.1c0,0,0,0.1,0,0.2c0,0,0,0,0,0c0,0.1,0,0.1,0,0.2c0,0.3,0,0.6,0,0.8v0c0,0,0,0,0,0"/>
		<line fill="none" stroke="#231815" stroke-miterlimit="10" x1="1319.6" y1="1109.5" x2="1319.6" y2="1109.5"/>
		<path fill="none" stroke="#231815" stroke-miterlimit="10" d="M1319,1110c-0.1,0-0.1-0.1-0.2-0.1c-0.1,0-0.1,0-0.2-0.1
			c-0.2,0-0.5,0-0.7,0.1c-0.2,0.1-0.3,0.2-0.4,0.3c-0.1,0.1-0.1,0.1-0.2,0.2c-0.1,0.1-0.1,0.3-0.1,0.5v0c0,0.1,0,0.3,0,0.4
			c0,0,0,0.1,0,0.1h0c0,0,0,0,0,0c0.1,0.2,0.2,0.3,0.3,0.5c0.2,0,0.3-0.1,0.5-0.2c0.1,0,0.2-0.1,0.3-0.2c0.2-0.1,0.4-0.3,0.6-0.5
			c0.1-0.1,0.2-0.2,0.2-0.3c0.1-0.1,0.1-0.2,0.1-0.3c0,0,0,0,0-0.1c0.1-0.2,0.1-0.3,0.1-0.5c0-0.1,0-0.2,0-0.3c0,0,0,0,0-0.1
			c0,0,0,0,0,0l0,0c-0.1,0-0.2-0.1-0.3-0.1c0,0-0.1,0-0.1,0c0,0,0,0-0.1,0c0,0,0,0,0,0c0,0,0,0-0.1,0c-0.1,0-0.2,0-0.3,0
			c-0.1,0-0.1,0-0.2,0c-0.1,0-0.1,0-0.2,0c-0.2,0-0.3,0-0.5,0.1c0,0-0.1,0-0.1,0c0,0,0,0,0,0c-0.1,0-0.2,0.1-0.3,0.2c0,0,0,0,0,0
			c-0.1,0.1-0.2,0.1-0.2,0.2c0,0,0,0-0.1,0.1c-0.3,0.3-0.4,0.7-0.2,1.1c0.1,0.2,0.2,0.3,0.3,0.4c0.1,0.1,0.3,0.1,0.5,0.1
			c0.1,0,0.1,0,0.2,0c0.1,0,0.2,0,0.2,0c0,0,0.1,0,0.1,0c0,0,0,0,0.1,0c0,0,0.1-0.1,0.2-0.1c0.1,0,0.1-0.1,0.2-0.1h0
			c0,0,0.1,0,0.1-0.1c0.1-0.1,0.1-0.1,0.2-0.2c0,0,0,0,0,0c0.1-0.1,0.2-0.2,0.2-0.3c0-0.1,0.1-0.2,0.1-0.3c0,0,0,0,0-0.1
			c0-0.1,0.1-0.2,0.1-0.2c0,0,0,0,0-0.1c0-0.1,0.1-0.2,0.1-0.3c0,0,0-0.1,0-0.1l0,0c0,0,0,0,0-0.1c0,0,0,0,0,0"/>
		<path fill="none" stroke="#231815" stroke-miterlimit="10" d="M1318.1,1111.6c0.1,0,0.2,0,0.3,0c0.2,0,0.4-0.1,0.6-0.3
			c0.1-0.1,0.2-0.3,0.3-0.5c0-0.1,0.1-0.3,0-0.4c0,0,0-0.1,0-0.1c0,0,0,0,0-0.1c0,0,0,0,0-0.1c0,0,0,0,0,0c0,0,0,0-0.1-0.1
			c0,0,0,0-0.1-0.1c0,0,0,0-0.1,0c0,0,0,0-0.1-0.1"/>
		<path fill="none" stroke="#231815" stroke-miterlimit="10" d="M1318.1,1111.6c0,0.1,0,0.1,0,0.2c0,0.1,0,0.1,0,0.2
			c0.3,0,0.7-0.2,1-0.4c0.2-0.2,0.4-0.4,0.6-0.6c0.1-0.2,0.2-0.4,0.3-0.6c0-0.1,0.1-0.3,0.1-0.4c0-0.1,0-0.2,0-0.2
			c-0.1-0.1-0.1-0.1-0.2-0.1c0,0,0,0,0,0c-0.1-0.1-0.1-0.1-0.2-0.1c0,0,0,0,0,0c-0.1-0.1-0.2-0.1-0.3-0.1c0,0-0.1,0-0.1,0l0,0
			c0,0,0,0-0.1,0c-0.1,0-0.1,0-0.2,0c0,0-0.1,0-0.2,0c-0.1,0-0.3,0-0.4,0c-0.1,0-0.2,0-0.3,0.1c-0.1,0-0.2,0.1-0.3,0.2c0,0,0,0,0,0
			c0,0,0,0,0,0c-0.1,0.1-0.2,0.2-0.2,0.2c0,0,0,0,0,0c-0.1,0.2-0.2,0.4-0.2,0.7c0,0.2,0,0.4,0.1,0.5c0,0,0,0,0,0.1
			c0.1,0.2,0.2,0.3,0.4,0.5c0,0,0,0,0.1,0c0,0,0,0,0,0s0,0,0,0C1318,1111.6,1318.1,1111.6,1318.1,1111.6"/>
		<line fill="none" stroke="#231815" stroke-miterlimit="10" x1="1318.1" y1="1111.6" x2="1318.1" y2="1111.6"/>
		<path fill="none" stroke="#231815" stroke-miterlimit="10" d="M1319.7,1109.4c0.1-0.1,0-0.1,0-0.2c-0.1-0.1-0.2-0.1-0.3,0l0,0
			c0,0.1,0,0.2,0.1,0.2c0,0.1,0.1,0.1,0.2,0.1h0c0.1,0,0.2,0,0.2,0c0.2-0.1,0.3-0.4,0.4-0.6c-0.2,0-0.5,0-0.7,0.1
			c-0.1,0-0.2,0.1-0.3,0.2l0,0c0,0,0,0-0.1,0.1c-0.1,0-0.1,0.1-0.1,0.2c0,0,0,0,0,0c0,0,0,0.1-0.1,0.1c0,0,0,0,0,0.1
			c0,0,0,0.1,0,0.2c0,0,0,0,0,0c0,0,0,0.1,0,0.1c0,0.1,0,0.1,0.1,0.1c0,0,0,0.1,0.1,0.1c0,0,0,0,0,0c0,0,0,0,0,0c0,0,0,0,0.1,0
			s0,0,0.1,0c0,0,0,0,0.1,0s0,0,0.1,0c0.2,0.1,0.4,0.1,0.5,0c0.1,0,0.2-0.1,0.2-0.2c0-0.1-0.1-0.1-0.1-0.2c-0.1-0.1-0.3-0.1-0.5,0
			c0,0-0.1,0-0.1,0c0,0,0,0,0,0c-0.1,0-0.2,0.1-0.2,0.2c0,0,0,0.1,0,0.1c0,0,0,0,0,0.1c0,0,0,0.1,0,0.1c0,0,0,0,0,0c0,0,0,0,0,0.1
			c0,0,0,0.1,0,0.1c0,0.1,0,0.1,0.1,0.1c0,0,0.1,0.1,0.1,0.1c0.1,0.1,0.2,0.1,0.3,0.2c0.2,0.1,0.4,0,0.6-0.1
			c0.4-0.3,0.5-0.9,0.3-1.4c-0.2-0.1-0.5,0-0.7,0c-0.1,0-0.2,0-0.3,0.1c0,0,0,0,0,0c0,0,0,0,0,0c-0.1,0-0.2,0.1-0.3,0.2
			c0,0-0.1,0-0.1,0.1c0,0-0.1,0.1-0.1,0.1h0c-0.1,0.1-0.2,0.1-0.2,0.2c-0.2,0.2-0.4,0.5-0.5,0.8c0,0,0,0,0,0c0,0.1-0.1,0.2-0.1,0.3
			c0,0,0,0.1,0,0.1v0c0,0,0,0.1,0,0.1"/>
		<path fill="none" stroke="#DCDCDD" stroke-miterlimit="10" d="M1276.2,1142.7c10.5,3.8,16.4,8.7,16.1,15c-0.1,1.7-0.6,3.3-1.5,4.9
			c-9,14.9-55.9,22.8-112.1,20.5c-62.1-2.6-112.1-10.6-111.4-29.3c0-0.1,0-0.2,0-0.4c1.2-15.7,37.7-23,86.3-23.2
			c8.7-0.1,17.8,0.1,27.2,0.5c8.9,0.4,17.5,0.8,25.8,1.4c6.1,0.4,12.1,0.9,17.8,1.4c12.1,1.1,23.2,2.6,32.6,4.4
			C1264.4,1139.1,1270.9,1140.8,1276.2,1142.7z"/>
		<path fill="none" stroke="#DCDCDD" stroke-miterlimit="10" d="M1251.3,1158.5c-0.2,6.1-28.2,9-62.4,7.6
			c-34.2-1.4-61.9-4.6-61.6-10.9c0.3-6.3,28.1-8.2,62.4-6.8C1223.9,1149.8,1251.6,1152.4,1251.3,1158.5z"/>
		<path fill="none" stroke="#DCDCDD" stroke-miterlimit="10" d="M1252.9,1201.6c15.3-2.6,30.7-5.3,46-8.3c10.4-2,20.7-4.2,31-6.6"/>
		<path fill="none" stroke="#DCDCDD" stroke-miterlimit="10" d="M1173.5,1215.2c14.2-2.5,28.5-4.9,42.8-7.4
			c12.2-2.1,24.3-4.2,36.4-6.3"/>
		<polyline fill="none" stroke="#DCDCDD" stroke-miterlimit="10" points="1039.1,1208.8 1041.6,1209.6 1166.9,1253.6 1281.5,1231.3 
			1349.2,1218.2 		"/>
		<path fill="none" stroke="#DCDCDD" stroke-miterlimit="10" d="M1041.4,1246.6c20.9,8.2,49.9,18.5,74.6,27
			c27.1,9.3,49,16.6,49,16.6c15.9-0.1,37.5-8.2,53.7-11c0.7-0.1,1.3-0.2,1.9-0.3c20.3-3.1,40.6-6.2,60.9-9.3
			c20.7-3.2,41.3-6.3,62-9.5"/>
		<path fill="none" stroke="#DCDCDD" stroke-miterlimit="10" d="M1035.1,1244.1c2,0.8,4.1,1.7,6.3,2.5"/>
		<path fill="none" stroke="#231815" stroke-miterlimit="10" d="M1058.6,1189.1c0.7-2.7,63.7,21.1,78.9,25.1"/>
		<path fill="none" stroke="#231815" stroke-miterlimit="10" d="M1252.9,1201.6c14.7-3,28.7-5.8,42-8.4c7.9-1.6,15.6-3.1,23-4.6"/>
		<path fill="none" stroke="#DCDCDD" stroke-miterlimit="10" d="M1252.7,1201.6c0.1,0,0.1,0,0.2,0"/>
		<path fill="none" stroke="#231815" stroke-miterlimit="10" d="M1173.4,1217.7c28.2-5.8,54.7-11.2,79.3-16.1"/>
		<path fill="none" stroke="#231815" stroke-miterlimit="10" d="M1255.8,1133c0.4-3.6,1-7.2,1.6-10.7c0-0.1,0-0.2,0.1-0.3
			c0.3-1.4,0.6-2.7,0.9-4.1c0.5-1.8,1.1-3.6,2-5.3c0.6-1.3,1.5-2.6,2.4-3.7c1.2-1.5,2.7-2.7,4.5-3.5c0.7-0.3,1.5-0.6,2.2-0.8
			c1.2-0.3,2.4-0.3,3.5-0.2c1.6,0.2,4.1,0.8,5.1,2.3"/>
		<path fill="none" stroke="#231815" stroke-miterlimit="10" d="M1257,1131.8c0.1,0,0.2,0.1,0.4,0.1c1.7,0.4,3.6,0.5,5.3,0.2"/>
		<path fill="none" stroke="#231815" stroke-miterlimit="10" d="M1257.9,1127.4c0.4,0.2,0.8,0.3,1.3,0.4c1.3,0.3,2.7,0.4,4,0.2"/>
		<path fill="none" stroke="#231815" stroke-miterlimit="10" d="M1258,1122c1.7,0.7,3.6,0.9,5.5,0.6"/>
		<path fill="none" stroke="#231815" stroke-miterlimit="10" d="M1258.5,1117.9c1.7,0.5,3.6,0.6,5.4,0.3"/>
		<path fill="none" stroke="#231815" stroke-miterlimit="10" d="M1260.3,1112.8c1.7,0.4,3.4,0.5,5.2,0.5"/>
		<path fill="none" stroke="#231815" stroke-miterlimit="10" d="M1262.6,1108.8c0.1,0,0.1,0,0.2,0.1c1.4,0.4,2.9,0.6,4.3,0.6"/>
		<path fill="none" stroke="#231815" stroke-miterlimit="10" d="M1266.5,1136.1c0-0.1,0-0.2,0-0.3c-0.1-4.8-0.2-9.7,0.1-14.5
			c0.1-2.1,0.4-4.3,0.7-6.4c0.4-2.4,1-4.8,2.4-6.7c1.4-1.9,3.9-3.3,6.2-2.7c0.8,0.2,1.6,0.6,2.2,1.2c1.2,1,2.1,2.5,2.7,4
			c0.9,2.1,1.4,4.3,1.8,6.5c0.2,0.9,0.3,1.8,0.4,2.8c1.2,7.5,2.3,15.1,1.4,22.6"/>
		<path fill="none" stroke="#DCDCDD" stroke-miterlimit="10" d="M1260.7,1210.2c0,3.5,0,1.7,0,2.6c0,0.3,0,0.9,0,2
			c7.4-1,15.3,3.1,18.7,9.9c1.1,2.1,1.7,4.3,2,6.7c0.5,3.3,0.5,6.7,0.5,10c-0.1,9.4-0.2,18.8-0.4,28.2c-0.1,4.3-0.2,8.7-0.4,13
			c0,1.3-0.1,2.5-0.1,3.8"/>
		<path fill="none" stroke="#231815" stroke-miterlimit="10" d="M1277.3,1292.4c-2.2-0.2-1.2-3.8,0.6-5.1c0.8-0.6,1.9-0.9,3.2-1
			c6.6-0.4,18.9,5.1,26.5,11.1c4,3.2,6.7,6.4,6.6,9.1c-0.1,1.6-0.4,3.3-1.3,4.6c-1.8,2.4-5.4,2.8-8.3,1.8c-2.8-1.1-5.1-3.3-7.3-5.3
			c-2.5-2.2-4.9-4.4-7.5-6.5C1285.9,1297.8,1281.8,1294.9,1277.3,1292.4"/>
		<path fill="none" stroke="#231815" stroke-width="0.5" stroke-miterlimit="10" d="M1075.7,910.7c0.2,1.6,0.1,3.1-0.8,4.6
			c-1.5,2.5-4.8,4-5.3,6.9c0,0.1,0,0.2,0,0.4c-0.1,1.9,1.1,3.7,1.8,5.5c3.4,8.4-3.1,18.5,0.3,26.9c2.4,6.1,9.1,9.1,15.3,11.3
			c6.2,2.3,20.8,7.2,34.3-0.1"/>
		<path fill="none" stroke="#231815" stroke-width="0.5" stroke-miterlimit="10" d="M1215.8,927.2c10.5-1.8,21.2-2.9,31.1-6.7
			c17-6.5,30.4-20.9,37.2-37.8c6.8-16.9,7.1-36,2.4-53.6c-2.8-10.4-7.3-20.5-14.2-28.7c-6-7.1-13.5-12.8-21.1-18.2
			c-12.6-9.1-25.4-17.9-39.5-24.2c-14.1-6.4-29.7-10.2-45.1-8.6c-12.2,1.2-23.9,5.6-35.2,10.4c-10.6,4.5-21.3,9.4-29.2,17.8
			c-7.9,8.3-12.1,19.3-12,28.9c0,9.6,4.6,14,6.1,19.8c1,3.9,2,7.8,1.6,11.8c-0.9,9.2-8.8,15.8-16.2,21.4c-2.8,2.1-5.7,4.3-7.8,7.2
			c-2.1,2.9-3.4,6.5-2.6,10c0.8,3.5,4.2,6.4,7.7,5.9c0.9-0.1,1.9-0.5,2.8-0.3c0.9,0.1,1.9,0.9,1.7,1.9c-0.1,0.5-0.5,0.8-0.8,1.1
			c-4,3.4-9.6,5.8-10.6,11c-0.5,2.6,0.4,5.3,1.4,7.9"/>
		<path fill="none" stroke="#231815" stroke-width="0.5" stroke-miterlimit="10" d="M1090.6,883.7c-1.1-0.6-2.2-1-3.4-1.3
			c-0.3,0.8-1.7,0.4-1.6-0.4c0.1-0.8,1.6-0.7,1.6,0.1"/>
		<path fill="none" stroke="#231815" stroke-width="0.5" stroke-miterlimit="10" d="M1090.6,883.7c0.4,0.3,0.8,0.6,1.3,0.7
			C1091.5,884.1,1091.1,883.9,1090.6,883.7z"/>
		<path fill="none" stroke="#231815" stroke-width="0.5" stroke-miterlimit="10" d="M1099.3,868c0.6,3,1.3,5.9,1.9,8.9
			c0.5,2.2,1,4.5,0.4,6.8c-0.5,2.2-2.3,4.3-4.6,4.4c-3.3,0.1-5.5-3.8-8.8-4.2c-1.3-0.2-3,0-3.4-1.2c-0.3-1,0.9-2,1.9-1.8
			c1.1,0.1,1.9,0.9,2.6,1.7c0.4,0.4,0.8,0.9,1.2,1.2"/>
		<path fill="none" stroke="#231815" stroke-width="0.5" stroke-miterlimit="10" d="M1213.7,881.6c0.4-4.8,5.6-7.5,10.2-8.6
			c8.2-2,18.2-0.7,23,6.2c3.2,4.6,3.4,10.9,1.6,16.2c-1.8,5.3-5.3,9.9-9.1,14.1c-4.6,5.1-9.7,9.9-15.5,13.5
			c-5.4,3.4-11.8,5.9-18.2,5.1s-12.5-5.5-13.4-11.9"/>
		<path fill="none" stroke="#231815" stroke-width="0.5" stroke-miterlimit="10" d="M1231.8,879.5c1.1-1.1,2.8,0.2,3.7,1.4
			c2.9,3.9,5.6,8.7,4.4,13.4c-0.8,3.1-3.2,5.5-5.6,7.7c-1.7,1.6-3.4,3.2-5.6,4c-2.5,0.9-5.2,0.6-7.8,1.2c-3.9,0.8-7.4,3.5-11.4,3.3
			c-0.7,0-1.5-0.4-1.4-1.1c0-0.2,0.2-0.4,0.3-0.6c2.7-3.1,6.9-5.5,7.4-9.5c0.2-1.7-0.3-3.3-0.3-5c0.1-1.7,1.1-3.6,2.7-3.7
			c1.1-0.1,2.2,0.7,3.3,0.5c1.2-0.2,1.9-1.3,2.4-2.3c2-3.6,3.5-7.5,4.6-11.5"/>
		<path fill="none" stroke="#231815" stroke-width="0.5" stroke-miterlimit="10" d="M1073.5,904c-0.8-3.3-1.1-6.4-0.6-9.2
			c10.2-1.7,21.9,6.4,23.1,16.7c-4.6-7.5-16.2-8.3-20.2-0.4c-0.1-0.1-0.1-0.2-0.1-0.3C1074.8,908.4,1074,906.1,1073.5,904
			C1073.5,904,1073.5,904,1073.5,904z"/>
		<path fill="none" stroke="#231815" stroke-width="0.5" stroke-miterlimit="10" d="M1070.5,922.6c1.1-2,2.4-3.9,4.1-5.5
			c6.7,5.1,17.8,2.3,21.3-5.3C1093.3,922.6,1079.5,929.2,1070.5,922.6z"/>
		<path fill="none" stroke="#231815" stroke-width="0.5" stroke-miterlimit="10" d="M1308.4,1079.7c-0.7,3-1.7,6.2-3,8.1
			c-3.3,4.7-9,7.2-14.4,9.1c-7,2.6-14.2,4.7-21.5,6.5c-2.4,0.6-4.9,1.1-7.3,1.6c-8,1.6-16.3,2.7-23.6,6.4
			c-7.3,3.7-13.6,10.7-13.8,18.8"/>
		<path fill="none" stroke="#231815" stroke-width="0.5" stroke-miterlimit="10" d="M1121.2,966.1c12-5,26.8-4.5,39.6-2.4
			c135.8,13.3,148.3,82.3,148.9,102.8"/>
		<path fill="none" stroke="#231815" stroke-width="0.5" stroke-miterlimit="10" d="M1215.2,927.4
			C1215.2,927.4,1215.2,927.4,1215.2,927.4c105.5,40,118.1,91.4,118,138"/>
		<path fill="none" stroke="#231815" stroke-width="0.5" stroke-miterlimit="10" d="M1018.5,1287.5c0.2,2,0.3,4.1,0.5,6.1
			c0.3,3.8,0.6,7.7,1,11.5c7.6,2.6,22.8,7.9,22.8,7.9s3.4-3.6,6.3-7.2c1.3-1.6,2.4-3.2,3.2-4.6"/>
		<path fill="none" stroke="#231815" stroke-width="0.5" stroke-miterlimit="10" d="M1328.6,1312.8c0.7,0.3,1.4,0.8,2.1,1.4
			c3.7,2.9,8,8.3,8.8,12c8.6-2.2,8.6-2.2,17.1-4.4c0.9-4.2,2.4-9.5,2.6-14.3c0.1-2.4-0.1-4.8-1-6.8"/>
		<path fill="none" stroke="#231815" stroke-miterlimit="10" d="M1141.3,1328.9c-0.7,2.6-1.4,9-1.8,14.1c-0.4,3.9-0.6,7-0.6,7
			l23.5,11.5c0,0,20.9-5.6,21.2-6.3c0.1-0.3,0.2-3,0.3-6.2c0.1-4.8,0.1-10.9-0.3-12.1"/>
		<path fill="none" stroke="#231815" stroke-miterlimit="10" d="M1325,1175.7c1.7,0.4,3.4,0.7,5,0.8c1.1-12.2,6-26.4,10.5-37.8
			c2.6-6.6,5.8-13.2,6.3-20.2c0.3-3.5-0.1-7-0.4-10.5c-1.2-11.5-2.4-23-3.6-34.5c-0.2-1.8-0.4-3.8-1.6-5.2c-1.8-2.3-5.2-2.4-8.1-2.4
			c-0.1,0-0.1,0-0.2,0c-7.8,0.2-15.5,0.4-23.3,0.7c-0.3,0-0.6,0-0.9,0c-3.7,3.3-3.2,8.9-0.5,13.1c1.2,1.8,2.8,3.4,4.7,4.4
			c6.2,3.3,13.8,2.3,20.7,1.1c0,0.1,0.1,0.2,0.1,0.3c2.9,7,3.1,15,2.2,22.5c-0.6,5.2-1.8,10.5-5.2,14.4c-2.8,3.3-7.6,5.2-11.7,4.2
			c-0.8-0.2-1.6-0.5-2.3-0.9c2.7,7.8,6.8,39.5-2.8,45.1c-0.2,0.1,1.5,1.2,4.1,2.3C1320.1,1174.1,1322.5,1175.1,1325,1175.7z"/>
		<path fill="none" stroke="#DCDCDD" stroke-width="0.5" stroke-miterlimit="10" d="M1048.3,896.6c-3.2,1.9-8.7,2.1-13,1.1
			c-4.3-1-7.7-2.9-10.7-4.9c4.7,2.6,11.1,4.3,17.7,4.5"/>
		<path fill="none" stroke="#DCDCDD" stroke-width="0.5" stroke-miterlimit="10" d="M1028.3,912.5c5.9,1.4,13.5-0.4,15.7-3.8
			c-6.4,2.7-14.5,4.1-22.6,4"/>
		<path fill="none" stroke="#DCDCDD" stroke-width="0.5" stroke-miterlimit="10" d="M1046.3,925.8c-6-2.8-16.5-1.5-19.8,2.5
			c3.3-2.9,11.4-3.6,16.1-1.4"/>
		<path fill="none" stroke="#231815" stroke-width="0.5" stroke-miterlimit="10" d="M1117.6,831.5
			C1117.6,831.5,1117.6,831.5,1117.6,831.5"/>
		<path fill="none" stroke="#231815" stroke-width="0.5" stroke-miterlimit="10" d="M1114.4,830.2c1,0.2,2,0.6,2.9,1"/>
		<path fill="none" stroke="#231815" stroke-width="0.5" stroke-miterlimit="10" d="M1114.4,830.2c0.1-0.1,0.1-0.2,0.1-0.2
			c-0.1-0.2-0.5-0.1-0.5,0.2C1114.1,830.2,1114.2,830.2,1114.4,830.2z"/>
		<path fill="none" stroke="#231815" stroke-width="0.5" stroke-miterlimit="10" d="M1114,830.3c0.1,0.1,0.3,0,0.4-0.1"/>
		<path fill="none" stroke="#231815" stroke-width="0.5" stroke-miterlimit="10" d="M1113.7,830.6c1.1,0.1,2.2,0.4,3.3,0.9"/>
		<path fill="none" stroke="#231815" stroke-width="0.5" stroke-miterlimit="10" d="M1114.1,829.7c-0.4,0.1-0.8,0.4-1,0.7"/>
		<path fill="none" stroke="#231815" stroke-width="0.5" stroke-miterlimit="10" d="M1113.4,830.4c-0.1,0-0.2,0.1-0.3,0.2"/>
		<path fill="none" stroke="#231815" stroke-width="0.5" stroke-miterlimit="10" d="M1116.2,831.3c-0.9,0.6-1.7,1.3-2.4,2.1"/>
		<path fill="none" stroke="#231815" stroke-width="0.5" stroke-miterlimit="10" d="M1113.5,833.5c-0.6,0.8-1,1.7-1.4,2.6"/>
		<path fill="none" stroke="#231815" stroke-width="0.5" stroke-miterlimit="10" d="M1116.1,831.2c-0.4,0-0.7,0.3-1,0.5
			c-0.6,0.5-1.1,1.1-1.5,1.7"/>
		<path fill="none" stroke="#231815" stroke-width="0.25" stroke-miterlimit="10" d="M1113.2,832.5c-0.2,0.3-0.5,0.7-0.7,1.1"/>
		<path fill="none" stroke="#231815" stroke-width="0.25" stroke-miterlimit="10" d="M1114.9,830.9c-0.3,0.2-0.6,0.4-0.9,0.7
			s-0.5,0.5-0.8,0.8"/>
		<path fill="none" stroke="#231815" stroke-width="0.25" stroke-miterlimit="10" d="M1115,830.8c-0.3,0.2-0.6,0.4-0.9,0.6
			c-0.7,0.6-1.3,1.3-1.7,2.1c0,0.1-0.1,0.2-0.1,0.2"/>
		<path fill="none" stroke="#231815" stroke-width="0.25" stroke-miterlimit="10" d="M1115.4,831.1c-0.7,0.7-1.4,1.5-1.9,2.3
			c0,0-0.1,0-0.1,0.1c-0.1,0.1-0.2,0.3-0.2,0.4"/>
		<path fill="none" stroke="#231815" stroke-width="0.25" stroke-miterlimit="10" d="M1111.3,835.7c0,0,0,0.1,0,0.1
			c-0.1,0.1-0.1,0.2-0.1,0.4"/>
		<path fill="none" stroke="#231815" stroke-width="0.25" stroke-miterlimit="10" d="M1113.7,832c-0.2,0.1-0.3,0.3-0.4,0.4
			c0,0,0,0,0,0c-0.3,0.3-0.6,0.7-0.8,1.1c-0.4,0.7-0.8,1.4-1,2.2"/>
		<path fill="none" stroke="#231815" stroke-width="0.25" stroke-miterlimit="10" d="M1114.3,831.5c-0.2,0.2-0.4,0.3-0.6,0.5"/>
		<path fill="none" stroke="#231815" stroke-width="0.25" stroke-miterlimit="10" d="M1111.7,836.9c-0.1,0.8-0.2,1.5-0.1,2.3"/>
		<path fill="none" stroke="#231815" stroke-width="0.25" stroke-miterlimit="10" d="M1113.1,833.5c-0.7,1-1.2,2.1-1.4,3.3"/>
		<path fill="none" stroke="#231815" stroke-width="0.25" stroke-miterlimit="10" d="M1111.3,840.2c0,0.5,0.1,0.9,0.1,1.4"/>
		<path fill="none" stroke="#231815" stroke-width="0.25" stroke-miterlimit="10" d="M1112.1,835.2c-0.6,1.5-0.9,3.2-0.8,4.8"/>
		<path fill="none" stroke="#231815" stroke-width="0.25" stroke-miterlimit="10" d="M1111.8,836.5c0,0.1-0.1,0.2-0.1,0.3
			c0,0,0,0.1,0,0.1c-0.3,1.2-0.3,2.5,0,3.7"/>
		<path fill="none" stroke="#231815" stroke-width="0.25" stroke-miterlimit="10" d="M1111.2,841.7c0,0.1,0,0.1,0,0.2"/>
		<path fill="none" stroke="#231815" stroke-width="0.25" stroke-miterlimit="10" d="M1111.2,841.6c0,0,0,0.1,0,0.1"/>
		<path fill="none" stroke="#231815" stroke-width="0.25" stroke-miterlimit="10" d="M1111.4,836.1c-0.6,1.8-0.7,3.7-0.2,5.5"/>
		<path fill="none" stroke="#231815" stroke-width="0.25" stroke-miterlimit="10" d="M1111.3,837.6c-0.1,0.8-0.1,1.7,0,2.5
			c0,0,0,0.1,0,0.1c0.1,0.4,0.1,0.7,0.3,1.1"/>
		<path fill="none" stroke="#231815" stroke-width="0.25" stroke-miterlimit="10" d="M1114.7,830.7c-0.2,0.2-0.4,0.5-0.6,0.7
			c-0.1,0.1-0.1,0.1-0.1,0.2c-0.1,0.1-0.2,0.2-0.2,0.3c0,0,0,0-0.1,0.1c-0.9,1.2-1.7,2.4-2.3,3.7c0,0,0,0,0,0
			c-0.1,0.2-0.2,0.3-0.2,0.5"/>
		<path fill="none" stroke="#231815" stroke-width="0.25" stroke-miterlimit="10" d="M1112.2,834.2c-1.1,1.9-1.6,4.2-1.3,6.3"/>
		<path fill="none" stroke="#231815" stroke-width="0.25" stroke-miterlimit="10" d="M1110.4,840.7c0,0.3,0.1,0.7,0.2,1"/>
		<path fill="none" stroke="#231815" stroke-width="0.25" stroke-miterlimit="10" d="M1111.7,835.2c-0.1,0.2-0.3,0.4-0.4,0.7
			c-0.2,0.5-0.4,1-0.6,1.5c-0.3,1.1-0.4,2.2-0.3,3.3"/>
		<path fill="none" stroke="#231815" stroke-width="0.25" stroke-miterlimit="10" d="M1111,836.4c-0.1,0.3-0.2,0.6-0.3,1
			c-0.4,2-0.1,4,0.8,5.8c0.1,0.1,0.1,0.3,0.2,0.4"/>
		<path fill="none" stroke="#231815" stroke-width="0.25" stroke-miterlimit="10" d="M1110.8,839.9c0,0.6,0.1,1.2,0.3,1.7
			c0,0,0,0,0,0v0c0.4,0.9,1.1,1.8,2,2.2c0.1,0.1,0.2,0.1,0.4,0.2"/>
		<path fill="none" stroke="#231815" stroke-width="0.25" stroke-miterlimit="10" d="M1111.6,840.7c0.3,1.2,0.8,2.3,1.6,3.2
			c0.1,0.1,0.2,0.2,0.2,0.3"/>
		<path fill="none" stroke="#231815" stroke-width="0.25" stroke-miterlimit="10" d="M1112.2,841.6c0.2,0.6,0.4,1.2,0.8,1.7"/>
		<path fill="none" stroke="#231815" stroke-width="0.25" stroke-miterlimit="10" d="M1111.2,840.7c0,0.3-0.1,0.5-0.1,0.8v0
			c0,0,0,0,0,0.1c0,0.5,0.1,1.1,0.3,1.6c0.3,0.6,0.7,1.2,1.2,1.6"/>
		<path fill="none" stroke="#231815" stroke-width="0.25" stroke-miterlimit="10" d="M1110.4,840.4c0,0.1,0,0.2,0,0.3c0,0,0,0,0,0
			c-0.1,1.8,0.8,3.6,2.3,4.6"/>
		<path fill="none" stroke="#231815" stroke-width="0.25" stroke-miterlimit="10" d="M1110.8,841.8c0.3,1.4,1.1,2.7,2.2,3.7
			c0.2,0.2,0.4,0.3,0.6,0.5"/>
		<path fill="none" stroke="#231815" stroke-width="0.25" stroke-miterlimit="10" d="M1112.2,843.6c0.1,0.3,0.3,0.6,0.5,0.8
			c0.3,0.3,0.6,0.5,1,0.7"/>
		<path fill="none" stroke="#231815" stroke-width="0.25" stroke-miterlimit="10" d="M1112.4,844.1c0.1,0.1,0.2,0.2,0.4,0.3
			c0.2,0.1,0.3,0.2,0.4,0.4"/>
		<path fill="none" stroke="#231815" stroke-width="0.25" stroke-miterlimit="10" d="M1112.9,845.2c0.1,0.1,0.2,0.1,0.3,0.1
			c0.2,0.1,0.4,0.1,0.5,0"/>
		<path fill="none" stroke="#231815" stroke-width="0.25" stroke-miterlimit="10" d="M1112.9,845.4c0,0,0.1,0,0.1,0
			c0.1,0,0.1,0,0.2,0c0.3,0,0.6-0.1,0.9-0.1"/>
		<path fill="none" stroke="#231815" stroke-width="0.25" stroke-miterlimit="10" d="M1113.4,845.6c0.3,0.2,0.7,0.2,0.9,0
			c0,0,0,0,0.1-0.1"/>
		<path fill="none" stroke="#231815" stroke-width="0.25" stroke-miterlimit="10" d="M1113.6,845.6c0.2,0,0.5,0,0.7,0
			c0.2,0,0.3-0.1,0.5-0.2c0.3-0.1,0.5-0.2,0.8-0.4c0.1,0,0.1-0.1,0.1-0.1"/>
		<path fill="none" stroke="#231815" stroke-width="0.25" stroke-miterlimit="10" d="M1114.1,845.4c0.2,0,0.5,0,0.8,0
			c1,0,2-0.3,2.8-0.8c0.3-0.2,0.6-0.4,0.9-0.6"/>
		<path fill="none" stroke="#231815" stroke-width="0.25" stroke-miterlimit="10" d="M1115.9,844.8c0.8,0,1.5-0.3,2.2-0.7"/>
		<path fill="none" stroke="#231815" stroke-width="0.5" stroke-miterlimit="10" d="M1114.2,817.6c2-2.6,4.4-5.3,7.6-5.5
			c0.9,0,1.8,0.2,2.7,0.4c3.3,0.7,6.7,1.4,10,2.2c3.6,0.8,7.2,1.6,10.7,2.9c3.2,1.2,6.3,2.9,9.1,4.9c-3.3-0.3-6.7-0.5-9.9-1.4
			c-2.6-0.7-5-1.9-7.6-2.6c-2.5-0.7-5-0.9-7.6-1.1c-4.6-0.4-10.7-0.8-15.1,0.4"/>
		
			<path fill="none" stroke="#231815" stroke-width="0.5" stroke-linecap="round" stroke-linejoin="round" stroke-miterlimit="10" d="
			M1114.3,829.6c5.7,1.5,11.4,3.1,16.7,5.6c5.3,2.5,10.3,6,13.8,10.7"/>
		<path fill="none" stroke="#231815" stroke-width="0.5" stroke-miterlimit="10" d="M1118.2,831.3c0.1-0.1,0.2-0.1,0.4-0.2
			c0.1,0,0.1-0.1,0.2-0.1"/>
		<path fill="none" stroke="#231815" stroke-width="0.5" stroke-miterlimit="10" d="M1115.3,829.9c1.2,0.3,2.3,0.7,3.4,1.1
			c1.9,0.7,3.8,1.6,5.7,2.4c6.2,2.8,12.6,5.8,16.8,11.3c-8.2-1.3-15.5-1.4-23.5-0.1c-0.7,0.1-1.4,0.2-2.1,0.4
			c-0.3,0.1-0.7,0.1-1,0.2c-1.6-1.9-2.8-4.6-2.2-6.9"/>
		<path fill="none" stroke="#231815" stroke-width="0.5" stroke-miterlimit="10" d="M1118.4,831.2
			C1118.5,831.2,1118.5,831.2,1118.4,831.2c0.1,0,0.1,0,0.1,0"/>
		<path fill="none" stroke="#231815" stroke-width="0.5" stroke-miterlimit="10" d="M1118.1,831c-0.3,0.1-0.5,0.2-0.8,0.3
			c-0.1,0-0.2,0.1-0.3,0.1c-1.6,0.8-2.8,2.1-3.7,3.6c-0.5,1-0.8,2.1-1,3.2v0c-0.1,1,0,2,0.2,3c0.3,1.2,0.9,2.3,2,2.8
			c1,0.5,2.3,0.3,3.3-0.3s1.7-1.6,2.2-2.6c1.2-2.4,1.6-5.4,0.5-7.9c-0.3-0.7-0.7-1.4-1.4-1.7c-0.3-0.2-0.7-0.2-1.1-0.2
			c-0.2,0-0.3,0.1-0.5,0.2c-0.1,0-0.1,0.1-0.2,0.1"/>
		<line fill="none" stroke="#231815" stroke-width="0.5" stroke-miterlimit="10" x1="1117.2" y1="831.9" x2="1117.4" y2="831.6"/>
	</g>
</g>
</svg>
